<svg width="1581" height="1891" viewBox="0 0 1581 1891" fill="none" xmlns="http://www.w3.org/2000/svg">
<path d="M0 720.82C1.21 719.16 1.8 717.24 2.25 715.26C3.13 711.3 4.67998 707.59 6.53998 703.99C9.96998 697.34 14.14 691.18 18.91 685.41C22.5033 681.057 26.3033 676.89 30.31 672.91C39.36 663.93 49.24 656.04 60.15 649.4C68.42 644.37 76.23 638.64 83.8 632.61C103.51 616.93 123.18 601.2 142.84 585.46C159.99 571.73 177.1 557.96 194.24 544.22C202.88 537.29 211.56 530.4 220.22 523.47C225.07 519.59 225.37 518.75 224.27 512.6C222.25 501.3 220.13 490.01 218.25 478.68C217.14 471.93 216.23 465.13 216.49 458.24C216.6 455.14 217.32 452.25 219.01 449.65C219.77 448.48 220.72 447.41 221.69 446.4C228 439.85 234.79 433.89 242.45 428.91C256.83 419.58 270.68 409.5 284.19 398.97C290.07 394.39 295.81 389.61 301.48 384.79C307.31 379.83 313.15 374.86 318.7 369.59C326.74 361.97 334.81 354.35 341.96 345.85C342.473 345.23 343.01 344.63 343.57 344.05C350.16 337.22 356.02 329.78 361.96 322.4C365.87 317.54 369.65 312.55 373.8 307.89C384.17 296.26 395.53 285.74 408.74 277.35C424.05 267.63 440.56 260.89 458.37 257.4C464.5 256.2 470.64 255.09 476.91 254.86C480.53 254.72 484.09 253.95 487.74 253.92C494.64 253.87 501.42 254.76 508.08 256.42C513.76 257.83 519.29 259.76 524.66 262.09C525.39 262.4 526.06 262.85 526.75 263.26C527.22 263.54 527.47 264.42 527.18 264.86C526.96 265.17 526.68 265.6 526.36 265.66C525.18 265.88 523.98 266.06 522.79 266.08C518.96 266.14 515.13 266.1 511.3 266.14C501.36 266.25 491.66 267.99 482.11 270.6C462.09 276.07 443.65 285.01 426.38 296.4C412.51 305.56 400.31 316.67 389.16 328.96C386.59 331.79 384.06 334.68 381.68 337.67C377.77 342.57 373.28 346.91 368.9 351.36C360.69 359.69 351.95 367.44 343.11 375.09C338.69 378.92 334.35 382.82 329.93 386.65C325.97 390.08 321.95 393.44 317.98 396.85C313.547 400.657 309.127 404.477 304.72 408.31C299.7 412.67 294.75 417.1 289.69 421.41C284.28 426.02 279.45 431.11 275.79 437.24C269.91 447.1 267.53 457.76 268.81 469.13C269.43 474.65 271.89 479.52 275.32 483.89C276.69 485.63 278.18 487.28 279.43 489.11C282.31 493.33 282.24 496.03 279.31 500.19C278.737 501.017 278.123 501.813 277.47 502.58C273.93 506.71 270.55 511 266.76 514.89C263.54 518.2 259.92 521.13 256.33 524.06C246.023 532.46 235.68 540.82 225.3 549.14C212.42 559.48 199.48 569.76 186.59 580.1C174.97 589.44 163.4 598.85 151.78 608.19C141.26 616.65 130.7 625.06 120.16 633.49C107.407 643.683 94.66 653.88 81.92 664.08C72.93 671.27 64.68 679.26 56.84 687.67C52.15 692.69 48.21 698.31 44.46 704.05C41.7 708.26 39.25 712.67 36.61 716.97C33.21 722.51 32.06 728.53 32.72 734.95C32.79 735.54 32.96 736.12 33.11 736.71C33.32 737.57 34.4 738.46 35.33 738.49C36.13 738.53 36.94 738.57 37.73 738.47C45.32 737.49 52.89 736.39 60.49 735.5C65.69 734.89 70.91 734.31 76.13 734.13C82.78 733.89 89.45 733.79 96.08 734.14C103.53 734.53 110.91 735.62 118.02 738.09C121.85 739.42 125.5 741.08 128.86 743.37C130.353 744.39 131.897 745.337 133.49 746.21C134.79 746.92 136.19 746.86 137.58 746.31C139.48 745.56 141.12 744.4 142.64 743.05C146.71 739.45 150.75 735.81 154.86 732.25C157.61 729.88 160.39 727.55 163.28 725.36C164.71 724.27 166.35 723.42 168 722.7C169.07 722.23 170.33 722.03 171.51 721.99C174.18 721.9 176.19 723.14 177.4 725.5C179.12 728.85 179.41 732.43 178.72 736.1C178.24 738.69 177.29 741.13 176.16 743.5C174.07 747.9 171.3 751.85 168.38 755.72C162.62 763.34 155.77 769.81 148.07 775.43C142.86 779.23 137.38 782.63 131.91 786.04C117.13 795.28 106.03 807.71 99.18 823.8C96.97 829.01 95.33 834.41 94.47 840.02C93.91 843.6 93.3 847.16 93.22 850.81C92.89 864.76 95.82 877.99 101.27 890.78C105.18 899.95 110.42 908.26 116.57 916.04C119.96 920.32 123.88 924.11 127.95 927.72C132.02 931.33 136.46 934.49 140.99 937.51C146.92 941.45 153.35 944.29 160.12 946.4C173.97 950.73 187.84 954.98 201.7 959.27C208.82 961.47 215.937 963.69 223.05 965.93C233.05 969.07 243.03 972.27 253.03 975.39C263.99 978.82 274.94 982.3 285.96 985.54C292.34 987.41 298.92 988.38 305.51 989.35C316.56 990.98 327.63 990.62 338.7 990.26C345.53 990.03 352.32 988.89 359.03 987.51C369.91 985.29 380.56 982.33 391.01 978.55C405.22 973.4 419.63 968.83 434.25 964.94C445.35 961.99 456.47 959.12 467.69 956.62C475.38 954.91 483.16 953.95 491.06 954.05C492.067 954.05 493.073 954.093 494.08 954.18C495.96 954.36 497.58 955.17 498.86 956.53C502.62 960.55 502.47 963.97 499.98 967.42C497.28 971.18 494.39 974.81 491.56 978.48C484.64 987.42 478.34 996.75 472.71 1006.57C467.29 1016.05 462.77 1025.92 458.82 1036.07C454.53 1047.08 448.42 1056.98 440.68 1065.88C438.17 1068.77 435.78 1071.8 432.99 1074.39C427.24 1079.74 421.34 1084.93 414.84 1089.41C407.03 1094.79 398.98 1099.76 390.42 1103.88C384.98 1106.51 379.46 1108.99 374.06 1111.7C369.2 1114.14 364.35 1116.63 359.68 1119.42C352.24 1123.87 345.03 1128.7 338.49 1134.42C332.58 1139.6 326.97 1145.1 322.1 1151.33C317.38 1157.37 313.12 1163.73 308.91 1170.13C307.03 1172.99 305.123 1175.83 303.19 1178.66C302.5 1179.67 301.59 1180.45 300.42 1180.93C299.09 1181.47 297.3 1180.86 296.85 1179.58C296.517 1178.63 296.25 1177.66 296.05 1176.68C295.39 1173.52 294.8 1170.35 294.14 1167.2C293.1 1162.22 291.09 1157.62 288.68 1153.16C287.12 1150.28 285.1 1147.81 282.68 1145.64C278.97 1142.31 273.4 1141.93 269.27 1144.69C267.57 1145.82 266.24 1147.32 264.98 1148.91C258.99 1156.42 256.07 1165.13 255.43 1174.58C254.79 1184.02 253.74 1193.45 254.02 1202.94C254.05 1203.93 253.82 1204.93 253.67 1205.92C253.58 1206.55 252.54 1207.4 251.92 1207.35C250.92 1207.27 249.87 1207.31 248.94 1207C246.85 1206.3 244.75 1205.54 242.77 1204.58C227.843 1197.36 213.803 1188.7 200.65 1178.59C190.56 1170.82 181.29 1162.16 172.69 1152.8C169.29 1149.09 166.19 1145.1 163.11 1141.12C159.53 1136.47 156.64 1131.41 154.78 1125.79C154.1 1123.69 153.07 1121.71 152.16 1119.69C151.91 1119.15 151.52 1118.67 151.15 1118.2C150.76 1117.71 150.27 1117.37 149.6 1117.46C148.9 1117.55 148.09 1118.31 148.04 1119.08C147.93 1120.68 147.72 1122.31 147.9 1123.88C148.32 1127.48 148.9 1131.06 149.51 1134.64C150.73 1141.79 152.02 1148.92 153.26 1156.07C153.4 1156.86 153.54 1157.68 153.45 1158.46C153.37 1159.24 153.08 1160.02 152.73 1160.72C152.18 1161.83 150.63 1162.31 149.61 1161.75C148.91 1161.36 148.18 1160.98 147.57 1160.47C142.18 1155.92 136.78 1151.38 132.33 1145.84C131.32 1144.59 130.19 1143.44 129.06 1142.29C118.28 1131.34 108.75 1119.36 100.11 1106.69C95.34 1099.69 90.98 1092.43 87.49 1084.69C83.69 1076.29 81.56 1067.53 82.25 1058.28C82.57 1054.08 83.28 1049.88 84.14 1045.74C85.44 1039.43 87.09 1033.19 89.18 1027.08C91.46 1020.4 93.77 1013.73 96.11 1007.08C98.11 1001.44 98.17 1000.93 94.14 996.19C89.57 990.81 85.38 985.14 81.12 979.51C66.84 960.63 54.92 940.32 45.12 918.78C39.52 906.473 34.9367 893.79 31.37 880.73C29.56 874.11 27.92 867.47 27.06 860.66C26.26 854.26 25.18 847.89 25.16 841.43C25.16 839.82 25.22 838.2 25.41 836.61C25.59 835.17 26.39 834 27.54 833.07C28.48 832.31 29.96 832.12 30.92 832.75C31.59 833.19 32.3 833.61 32.86 834.17C35.28 836.6 37.7 839.02 40.03 841.54C42.08 843.75 43.97 846.12 46.02 848.34C48.28 850.8 49.73 853.56 50 856.94C50.14 858.74 50.59 860.53 50.71 862.33C51.17 868.81 52.66 875.08 54.62 881.23C57.6067 890.663 61.2466 899.833 65.54 908.74C67.38 912.553 69.2667 916.343 71.2 920.11C78.15 933.62 86.64 946.07 96.8 957.37C99.36 960.22 101.81 963.16 104.36 966.01C104.88 966.6 105.59 967.06 106.28 967.44C106.57 967.6 107.05 967.46 107.43 967.39C107.62 967.36 107.82 967.24 107.95 967.1C111.843 962.693 115.023 957.82 117.49 952.48C118.14 951.05 117.96 949.71 116.94 948.54C114.58 945.78 112.23 943.03 109.81 940.33C102.37 932.04 96.15 922.91 90.61 913.26C81.8 897.93 75.95 881.46 71.49 864.44C70.83 861.9 70.25 859.35 69.65 856.8C68.75 852.96 66.83 849.79 63.97 847.03C58.18 841.42 52.38 835.81 46.87 829.93C32 814.09 19.58 796.57 10.87 776.57C8.21 770.47 5.80997 764.26 4.33997 757.74C4.07997 756.56 3.78998 755.38 3.66998 754.18C3.39998 751.35 4.39998 749.02 6.78998 747.41C7.78998 746.74 8.9 746.23 9.94 745.63C10.67 745.21 10.72 744.22 10.06 743.55C9.78 743.27 9.51001 742.96 9.20001 742.71C5.83001 739.93 3.55997 736.43 2.27997 732.28C1.79997 730.72 1.16 729.26 0 728.08C0 725.66 0 723.24 0 720.82ZM175.72 970.16C175.1 970.16 173.28 970.1 171.47 970.18C166.23 970.39 161.07 971.23 155.92 972.22C149.84 973.4 145.29 976.81 141.75 981.75C139.63 984.72 137.89 987.9 136.47 991.24C131.3 1003.49 126.06 1015.71 121.05 1028.03C119.01 1033.06 117.36 1038.26 115.79 1043.46C113.54 1050.93 113.21 1058.49 115.12 1066.14C116.2 1070.49 117.87 1074.59 120.17 1078.39C124.12 1084.93 128.31 1091.35 132.46 1097.78C133.1 1098.77 134.05 1099.58 134.91 1100.42C135.63 1101.13 137.03 1100.89 137.52 1100.01C138.4 1098.43 139.13 1096.75 140.15 1095.27C142.24 1092.25 145.67 1091.73 148.6 1093.88C149.4 1094.47 150.17 1095.15 150.83 1095.9C151.89 1097.11 152.87 1098.39 153.87 1099.66C157.74 1104.56 161.78 1109.31 166.22 1113.72C171.82 1119.26 177.8 1124.34 184.07 1129.07C194.54 1136.98 205.45 1144.18 217.32 1149.87C222.5 1152.36 223.07 1152.7 225.01 1147.01C227.31 1140.22 231.22 1134.43 236.41 1129.43C241.84 1124.21 248.15 1120.27 254.59 1116.51C258.94 1113.97 263.56 1111.95 268.38 1110.4C273.55 1108.73 278.7 1106.97 283.85 1105.23C295.31 1101.36 306.923 1098.02 318.69 1095.21C331.84 1092.07 344.65 1087.87 357.08 1082.51C371.75 1076.17 385.6 1068.4 398.46 1058.92C402.02 1056.3 405.39 1053.38 408.6 1050.34C415.08 1044.21 420.36 1037.1 424.95 1029.48C429.7 1021.59 432.65 1013.1 433.71 1003.95C434.04 1001.14 434.18 998.31 433.69 995.52C433.16 992.55 431.59 990.31 428.57 989.36C427.61 989.06 426.65 988.73 425.67 988.52C421.13 987.54 416.57 986.95 411.9 986.95C406.01 986.96 400.24 987.81 394.5 988.8C386.16 990.23 377.96 992.38 369.88 994.91C363.73 996.84 357.51 998.52 351.1 999.39C347.51 999.88 343.91 1000.29 340.32 1000.82C332.3 1002.01 324.22 1001.83 316.2 1001.21C308.59 1000.62 301 999.52 293.49 997.99C283.01 995.85 272.7 993.22 262.77 989.14C255.87 986.31 248.71 984.2 241.49 982.32C224.71 977.94 207.67 974.82 190.72 971.28C186.14 970.33 181.57 969.89 175.72 970.16ZM108.36 764.48C107.16 764.48 106.16 764.47 105.15 764.48C98.07 764.5 91.72 766.89 85.88 770.69C84.21 771.77 82.69 773.17 81.37 774.66C77.84 778.64 75.41 783.25 74.16 788.44C73.02 793.17 72.44 797.96 72.86 802.82C73.27 807.63 73.77 812.44 74.44 817.22C74.68 818.9 74.48 820.88 76.13 822.15C78.43 821.85 78.37 819.62 79.29 818.22C79.95 817.22 80.39 816.07 80.92 814.98C85.89 804.73 92.57 795.71 100.55 787.63C104.79 783.33 109.09 779.08 113.94 775.44C116.673 773.387 119.38 771.293 122.06 769.16C122.51 768.81 122.88 768.29 123.11 767.77C123.24 767.48 123.12 766.88 122.89 766.68C122.46 766.3 121.9 765.99 121.34 765.86C117.01 764.83 112.63 764.25 108.36 764.48ZM246.96 478.49C247.01 482.58 247.82 487.31 248.99 491.99C249.09 492.37 249.27 492.74 249.41 493.11C249.67 493.81 250.39 494.39 250.71 494.12C251.15 493.75 251.7 493.34 251.83 492.84C252.32 491.11 252.61 489.33 253.03 487.58C254.27 482.5 253.06 477.62 251.85 472.76C251.57 471.61 250.88 470.57 250.31 469.51C250.14 469.18 249.8 468.84 249.46 468.73C249.16 468.63 248.53 468.74 248.45 468.93C247.26 471.75 247.03 474.73 246.96 478.49Z" fill="white"/>
<path d="M1580.72 1061.88C1580.42 1063.25 1579.84 1064.62 1579.84 1065.98C1579.84 1076.94 1577.75 1087.62 1575.81 1098.32C1573.29 1112.21 1569.86 1125.89 1565.88 1139.44C1564.97 1142.54 1564.05 1145.64 1561.97 1148.21C1561.47 1148.83 1560.86 1149.37 1560.28 1149.91C1559.75 1150.42 1558.45 1150.07 1558.25 1149.39C1558.08 1148.81 1557.82 1148.24 1557.79 1147.66C1557.57 1144.03 1557.5 1140.39 1558.12 1136.8C1558.71 1133.41 1558.86 1129.99 1558.84 1126.57C1558.82 1122.54 1558.89 1118.5 1558.69 1114.48C1558.34 1107.24 1558.05 1099.98 1557.3 1092.77C1556.12 1081.56 1554.94 1070.34 1552.79 1059.25C1551.37 1051.93 1550.07 1044.59 1548.45 1037.31C1543.8 1016.45 1538.03 995.89 1531.09 975.67C1526.84 963.27 1521.99 951.11 1516.86 939.05C1512.19 928.1 1506.87 917.47 1501.31 906.96C1495.37 895.72 1488.53 885.02 1481.11 874.7C1479.46 872.427 1477.76 870.187 1476.01 867.98C1475.87 867.8 1475.29 867.9 1474.93 867.96C1474.8 867.99 1474.63 868.29 1474.63 868.46C1474.64 869.66 1474.55 870.88 1474.73 872.06C1475.71 878.63 1476.33 885.24 1477.07 891.85C1478.69 906.33 1477.92 920.83 1477.88 935.33C1477.87 936.93 1477.63 938.54 1477.46 940.14C1477.36 941.14 1477.08 942.14 1477.08 943.14C1477.05 949 1476.1 954.78 1475.49 960.58C1474.82 966.99 1473.78 973.36 1472.78 979.73C1470.87 991.87 1468.54 1003.93 1465.79 1015.92C1463.32 1026.73 1460.52 1037.45 1457.4 1048.09C1452.22 1065.69 1446.29 1083.03 1439.77 1100.18C1434.39 1114.32 1428.53 1128.24 1422.32 1142.02C1416.69 1154.51 1411.01 1166.99 1404.72 1179.16C1399.45 1189.36 1394.07 1199.52 1388.53 1209.58C1383.19 1219.29 1377.74 1228.94 1372.07 1238.46C1360.42 1258.03 1347.89 1277.05 1334.72 1295.64C1324.59 1309.95 1313.98 1323.91 1302.96 1337.54C1298.02 1343.65 1292.89 1349.61 1287.8 1355.59C1283.36 1360.8 1278.85 1365.96 1274.35 1371.12C1273.29 1372.34 1272.13 1373.46 1271.04 1374.65C1267.35 1378.65 1263.67 1382.65 1259.99 1386.66C1259.03 1387.69 1258.05 1388.71 1257.06 1389.71C1253.24 1393.58 1249.35 1397.39 1245.58 1401.31C1237.47 1409.75 1228.86 1417.66 1220.15 1425.43C1203.59 1440.2 1186.29 1454.04 1168 1466.61C1163.66 1469.59 1159.03 1472.03 1154.23 1474.16C1152.77 1474.81 1151.22 1475.28 1149.68 1475.72C1148.9 1475.94 1148.07 1475.82 1147.43 1475.2C1147 1474.77 1147.03 1473.66 1147.44 1472.92C1148.61 1470.78 1150.17 1468.95 1151.88 1467.22C1154.85 1464.2 1157.83 1461.2 1160.76 1458.15C1167.46 1451.17 1173.91 1443.96 1180.22 1436.64C1183.24 1433.13 1186.3 1429.65 1189.35 1426.16C1205.24 1407.91 1220.09 1388.84 1234.53 1369.44C1243.55 1357.31 1252.21 1344.92 1260.86 1332.53C1269.75 1319.8 1278.17 1306.77 1286.52 1293.69C1298.34 1275.18 1309.8 1256.44 1320.71 1237.37C1327.11 1226.17 1333.32 1214.88 1339.47 1203.54C1348.78 1186.34 1357.5 1168.85 1365.91 1151.2C1377.09 1127.73 1387.35 1103.84 1396.76 1079.6C1403.18 1063.06 1409.27 1046.41 1414.62 1029.49C1422.59 1004.3 1429.18 978.74 1433.69 952.7C1435.07 944.77 1436.42 936.81 1436.79 928.74C1436.81 928.13 1436.82 927.52 1436.94 926.93C1438.01 921.35 1437.98 915.7 1437.99 910.06C1438 897.16 1437.95 884.263 1437.84 871.37C1437.81 868.35 1437.39 865.35 1437.14 862.34C1437.06 861.33 1436.9 860.34 1436.82 859.33C1435.57 842.22 1432.85 825.34 1429.13 808.6C1425.53 792.44 1420.83 776.61 1415.2 761.06C1411.98 752.16 1408.5 743.34 1404.48 734.76C1402.43 730.38 1400.5 725.94 1398.34 721.62C1389.31 703.53 1378.59 686.49 1366.03 670.65C1362.15 665.76 1358.19 660.92 1353.74 656.52C1350.73 653.55 1347.79 650.5 1344.78 647.52C1340.63 643.41 1336.48 639.29 1331.82 635.73C1330.54 634.76 1329.33 633.68 1328.14 632.59C1327.55 632.06 1326.99 631.45 1326.57 630.78C1325.8 629.55 1325.37 628.21 1326.12 626.79C1326.78 625.55 1328.76 624.89 1330.41 625.51C1331.92 626.063 1333.39 626.73 1334.8 627.51C1352.06 637.15 1368.65 647.84 1384.77 659.28C1394.81 666.4 1404.36 674.14 1413.88 681.9C1418.87 685.97 1423.55 690.42 1428.36 694.72C1431.21 697.27 1434.07 699.81 1436.86 702.44C1442.27 707.56 1447.65 712.73 1452.57 718.34C1454.04 720 1455.5 721.68 1457.05 723.26C1463.12 729.45 1468.63 736.13 1474.26 742.72C1482.12 751.92 1489.43 761.55 1496.49 771.36C1506.5 785.27 1515.82 799.64 1524.32 814.53C1530.72 825.74 1536.48 837.28 1542 848.94C1547.19 859.867 1551.8 871.037 1555.84 882.45C1561.55 898.61 1566.71 914.93 1570.6 931.64C1573.21 942.833 1575.41 954.103 1577.2 965.45C1578.02 970.623 1578.74 975.81 1579.36 981.01C1579.67 983.6 1579.65 986.24 1579.73 988.85C1579.79 990.68 1579.89 992.48 1580.72 994.15C1580.72 1016.73 1580.72 1039.31 1580.72 1061.88Z" fill="white"/>
<path d="M828.46 1890.34C826.19 1886.7 824.98 1882.72 824.19 1878.49C821.89 1866.22 819.29 1853.99 816.93 1841.73C815.14 1832.43 813.71 1823.07 812.51 1813.67C811.9 1808.88 811.24 1804.09 810.62 1799.3C810.44 1797.9 810.36 1796.49 810.22 1795.09C809.98 1792.68 809.743 1790.28 809.51 1787.87C809.34 1786.07 809.1 1784.27 809.04 1782.46C808.907 1779.04 808.627 1775.63 808.2 1772.22C807.83 1769.23 807.86 1766.19 807.77 1763.17C807.65 1758.94 807.64 1754.72 807.01 1750.51C806.71 1748.53 806.72 1746.49 806.72 1744.48C806.707 1729.56 806.71 1714.64 806.73 1699.73C806.74 1697.92 806.69 1696.08 806.98 1694.3C807.71 1689.7 807.68 1685.06 807.77 1680.43C807.86 1676.2 807.83 1671.96 808.62 1667.78C808.7 1667.38 808.74 1666.98 808.74 1666.58C808.69 1659.31 809.84 1652.12 810.23 1644.88C810.33 1643.07 810.55 1641.27 810.75 1639.47C810.88 1638.27 811.15 1637.08 811.22 1635.88C811.6 1629.03 812.57 1622.25 813.5 1615.47C814.36 1609.28 815.1 1603.08 816.03 1596.91C817.203 1589.14 818.45 1581.39 819.77 1573.64C822.92 1555.16 827.02 1536.87 831.84 1518.75C834.01 1510.58 836.41 1502.46 838.83 1494.35C840.73 1487.98 842.71 1481.62 844.84 1475.33C850.21 1459.48 856.14 1443.84 863.21 1428.66C867.05 1420.44 870.7 1412.14 874.56 1403.94C879.22 1394.05 884.97 1384.84 891.81 1376.31C895.09 1372.23 898.52 1368.26 901.9 1364.27C902.81 1363.19 903.79 1362.18 905.25 1361.8C905.98 1361.62 907.03 1362.36 906.91 1363.1C906.78 1363.88 906.71 1364.71 906.42 1365.43C905.807 1366.92 905.13 1368.39 904.39 1369.82C899.27 1379.91 895.16 1390.41 891.43 1401.07C885.22 1418.78 880.52 1436.92 875.91 1455.08C870.9 1474.82 866.64 1494.72 862.96 1514.74C860.89 1526.03 859.22 1537.4 857.47 1548.74C856.343 1556.11 855.307 1563.49 854.36 1570.88C853.7 1576.07 853.26 1581.29 852.7 1586.5C852.053 1592.51 851.41 1598.51 850.77 1604.52C850.6 1606.12 850.51 1607.73 850.38 1609.34C850.11 1612.55 849.81 1615.75 849.58 1618.97C849.387 1621.58 849.243 1624.19 849.15 1626.81C848.98 1632.24 849.08 1637.69 848.27 1643.1C848 1644.88 848.07 1646.72 848.06 1648.53C848.04 1654.17 848.033 1659.81 848.04 1665.46C848.04 1669.29 848.21 1673.1 848.66 1676.92C849.06 1680.31 849.1 1683.76 849.1 1687.18C849.09 1692.04 849.87 1696.81 850.59 1701.59C850.63 1701.89 851.07 1702.27 851.38 1702.35C851.7 1702.42 852.25 1702.26 852.42 1702.01C853.32 1700.68 854.23 1699.35 854.96 1697.92C861.15 1685.9 868.19 1674.38 875.84 1663.24C882.56 1653.44 889.66 1643.9 897.18 1634.68C901.89 1628.9 906.55 1623.08 911.33 1617.36C914.94 1613.03 918.69 1608.81 922.43 1604.59C928.177 1598.11 933.94 1591.65 939.72 1585.2C940.66 1584.15 941.627 1583.12 942.62 1582.11C953.42 1571.25 964.2 1560.37 975.06 1549.57C977.62 1547.01 980.43 1544.7 983.15 1542.31C986.93 1538.98 990.7 1535.64 994.53 1532.37C1004.5 1523.87 1014.72 1515.68 1025.44 1508.14C1031.38 1503.97 1037.35 1499.85 1043.35 1495.77C1059.21 1485 1075.73 1475.33 1093.05 1467.09C1111.68 1458.23 1129.06 1447.3 1146.05 1435.71C1151.21 1432.19 1156.25 1428.48 1160.93 1424.32C1161.37 1423.93 1161.9 1423.58 1162.45 1423.37C1162.74 1423.26 1163.29 1423.38 1163.49 1423.6C1163.7 1423.83 1163.73 1424.33 1163.68 1424.68C1163.62 1425.07 1163.43 1425.45 1163.22 1425.79C1161.19 1429.04 1159.08 1432.25 1156.35 1434.97C1148.79 1442.51 1141.34 1450.17 1133.55 1457.48C1128.27 1462.43 1122.56 1466.94 1116.92 1471.5C1107.84 1478.86 1098.78 1486.24 1089.99 1493.94C1085.44 1497.92 1080.83 1501.82 1076.24 1505.76C1075.93 1506.01 1075.63 1506.28 1075.33 1506.55C1068.1 1513.26 1060.86 1519.98 1053.62 1526.7C1050.23 1529.85 1046.81 1532.98 1043.43 1536.14C1041.52 1537.94 1039.64 1539.76 1037.79 1541.61C1032.78 1546.58 1027.79 1551.57 1022.81 1556.57C1019.12 1560.29 1015.5 1564.06 1012.02 1567.99C1008.02 1572.51 1003.57 1576.64 999.47 1581.08C993.74 1587.3 988.15 1593.65 982.5 1599.95C981.82 1600.7 981.18 1601.48 980.49 1602.21C975.2 1607.75 970.32 1613.65 965.4 1619.52C958.41 1627.85 951.38 1636.15 944.45 1644.53C932.49 1659 921.4 1674.07 911.52 1690.05C905.05 1700.51 898.96 1711.17 893.16 1722.02C889.27 1729.31 885.4 1736.61 881.85 1744.07C872.57 1763.54 863.54 1783.12 855.85 1803.28C848.24 1823.27 841.56 1843.54 836.82 1864.42C835.71 1869.33 834.67 1874.26 833.54 1879.17C832.69 1882.91 831.77 1886.62 830.88 1890.34C830.073 1890.34 829.267 1890.34 828.46 1890.34Z" fill="white"/>
<path d="M425.72 0C426.25 0.28 426.76 0.650007 427.33 0.820007C433.57 2.67001 439.23 5.78001 444.76 9.10001C450.63 12.62 456.36 16.4 461.75 20.65C463.97 22.39 466.11 24.22 468.26 26.05C469.95 27.48 471.6 28.96 473.26 30.44C474.31 31.37 475.42 32.26 476.38 33.29C486.7 44.43 495.92 56.34 502.57 70.09C505.47 76.09 507.88 82.29 510.23 88.51C511.59 92.11 512.17 95.91 512.78 99.69C513.16 102.08 513.36 104.49 513.69 106.89C514 109.13 513.76 111.3 513.11 113.45C512.25 116.24 510.34 117.88 507.56 118.41C504.56 118.99 501.52 118.88 498.54 118.32C494.17 117.5 489.94 116.22 485.89 114.32C479.83 111.48 474.17 108.03 468.94 103.88C465.15 100.87 461.35 97.9 457.86 94.53C446.14 83.21 436.8 70.16 429.32 55.74C426.06 49.48 423.03 43.12 420.95 36.34C418.69 28.99 416.98 21.52 416.23 13.89C415.78 9.29998 416.08 4.63 416.04 0C419.267 0 422.493 0 425.72 0Z" fill="white"/>
<path d="M651.77 1385.1C651.77 1379.06 651.74 1373.01 651.78 1366.96C651.81 1362.33 651.8 1357.69 652.64 1353.1C652.813 1352.11 652.89 1351.1 652.87 1350.09C652.78 1344.02 653.95 1338.05 654.49 1332.04C654.98 1326.43 655.97 1320.85 656.89 1315.29C659.25 1300.97 662.18 1286.76 665.93 1272.73C669.583 1259.09 673.9 1245.66 678.88 1232.45C683 1221.51 687.66 1210.8 692.54 1200.17C699.2 1185.67 706.97 1171.79 715.12 1158.12C724.74 1142.01 735.43 1126.61 746.88 1111.75C752.17 1104.89 757.53 1098.05 763.33 1091.63C769.95 1084.32 776.31 1076.71 783.62 1070.06C789.72 1064.5 795.53 1058.61 801.98 1053.43C805.13 1050.91 808.15 1048.24 811.23 1045.64C817.56 1040.29 824.71 1036.11 831.64 1031.61C833.05 1030.69 834.47 1030.75 834.89 1031.6C835.54 1032.89 834.91 1033.94 834.16 1034.9C832.547 1036.97 830.913 1039.02 829.26 1041.05C819.17 1053.39 809.83 1066.27 800.96 1079.51C791.87 1093.08 783.4 1107.03 775.42 1121.28C768.32 1133.94 761.62 1146.82 755.43 1159.94C747.95 1175.8 740.77 1191.81 734.31 1208.11C726.21 1228.55 719.36 1249.4 713.67 1270.65C710.277 1283.32 707.337 1296.08 704.85 1308.93C703.09 1318.03 701.76 1327.21 700.29 1336.36C699.677 1340.14 699.143 1343.93 698.69 1347.73C697.92 1354.33 696.9 1360.9 696.69 1367.56C696.65 1368.76 696.67 1369.99 696.46 1371.17C695.49 1376.57 695.51 1382.01 695.5 1387.45C695.47 1400.15 695.51 1412.85 695.55 1425.55C695.56 1428.97 695.65 1432.4 696.3 1435.79C696.44 1436.57 696.52 1437.38 696.57 1438.19C697.85 1457.55 701.36 1476.54 706.17 1495.32C710.94 1513.98 718.05 1531.7 727.19 1548.62C727.963 1550.03 728.82 1551.4 729.76 1552.71C730.06 1553.12 730.81 1553.53 731.22 1553.43C731.68 1553.32 732.2 1552.68 732.36 1552.16C733.507 1548.51 734.613 1544.85 735.68 1541.17C740.67 1524.14 746.37 1507.36 753 1490.89C758.27 1477.8 763.98 1464.91 769.84 1452.06C776.36 1437.75 783.41 1423.7 790.66 1409.75C796.42 1398.67 802.57 1387.79 808.64 1376.87C816.09 1363.48 824.06 1350.4 832.25 1337.46C839.8 1325.54 847.32 1313.6 855.56 1302.13C858.61 1297.87 861.47 1293.48 864.34 1289.09C876.38 1270.7 889.23 1252.88 902.65 1235.48C908.55 1227.82 914.74 1220.38 920.88 1212.91C926.247 1206.37 931.683 1199.89 937.19 1193.46C941.13 1188.88 945.08 1184.29 949.3 1179.97C956.07 1173.03 962.28 1165.63 968.41 1158.15C978.76 1145.52 988.73 1132.59 998.5 1119.52C1008.51 1106.12 1018.33 1092.57 1027.68 1078.69C1031.17 1073.51 1034.83 1068.45 1038.25 1063.21C1050.59 1044.31 1062.47 1025.13 1073.79 1005.58C1086.42 983.76 1097.93 961.36 1108.8 938.63C1113.32 929.18 1117.44 919.53 1121.6 909.92C1128.01 895.11 1133.59 879.99 1138.88 864.75C1141.13 858.29 1143.03 851.69 1145.02 845.14C1146.18 841.28 1147.22 837.38 1148.31 833.5C1152.18 819.71 1155.25 805.75 1157.42 791.59C1158.06 787.41 1158.73 783.23 1159.33 779.04C1159.54 777.65 1159.6 776.23 1159.71 774.83C1160 771.417 1160.28 768.003 1160.54 764.59C1160.67 762.78 1160.8 760.97 1160.81 759.16C1160.85 754.32 1160.88 749.48 1160.8 744.65C1160.75 742.03 1160.45 739.42 1160.25 736.82C1160.14 735.41 1159.88 734.01 1159.88 732.6C1159.9 727.74 1159.05 722.97 1158.51 718.17C1158.28 716.13 1157.63 714.24 1156.69 712.45C1155 709.217 1152.91 706.267 1150.41 703.6C1144.06 696.85 1137.69 690.12 1131.45 683.26C1126.98 678.34 1122.78 673.18 1118.34 668.23C1112.55 661.78 1107.23 654.94 1101.89 648.12C1095.93 640.5 1089.94 632.9 1084.1 625.19C1065.86 601.08 1047.69 576.92 1029.49 552.78C1024.87 546.66 1020.77 540.19 1016.67 533.72C1014.51 530.31 1012.37 526.9 1010.12 523.56C1007.85 520.18 1007 519.9 1003.05 521.52C999.88 522.81 996.83 524.39 993.71 525.8C989.86 527.55 986.02 529.35 982.11 530.94C980.07 531.77 977.87 532.22 975.73 532.8C975.16 532.95 974.54 532.97 973.94 533.02C972.31 533.15 970.88 531.23 971.52 529.69C971.83 528.96 972.19 528.19 972.72 527.63C973.84 526.47 975.02 525.373 976.26 524.34C983.08 518.63 989.19 512.25 995.05 505.56C1005.71 493.38 1014.88 480.14 1023.04 466.2C1030.77 452.98 1038.01 439.49 1043.69 425.2C1049 411.85 1052.91 398.12 1055.53 384.01C1056.97 376.29 1058.12 368.52 1058.28 360.63C1058.3 359.83 1058.32 359.01 1058.46 358.22C1059.48 352.42 1059.2 346.57 1059.2 340.73C1059.19 339.32 1059.19 337.89 1058.98 336.5C1058.4 332.71 1058.4 328.87 1058.07 325.06C1057.4 317.43 1056.21 309.85 1054.21 302.45C1049.86 286.36 1043.25 271.28 1033.57 257.65C1025.08 245.69 1014.93 235.42 1002.38 227.7C994.45 222.83 986.09 218.87 977.03 216.51C970.59 214.84 964.09 213.59 957.47 212.71C950.03 211.73 942.59 211.64 935.15 211.96C928.11 212.26 921.13 213.35 914.2 214.71C903.47 216.83 893.21 220.36 883.22 224.76C871.17 230.07 860 236.83 849.29 244.45C837.6 252.77 826.83 262.14 816.78 272.37C809.14 280.16 802.22 288.54 795.7 297.26C785.65 310.7 777.01 324.99 769.66 340.08C768.42 342.62 767.3 345.19 766.64 347.96C766.307 349.333 765.877 350.677 765.35 351.99C764.54 354 763 355.27 760.85 355.6C757.46 356.11 754.06 356.52 750.66 356.96C744.94 357.71 739.75 359.76 735.28 363.46C734.82 363.84 734.33 364.28 734.11 364.81C733.91 365.31 733.86 366.03 734.07 366.51C734.39 367.22 734.94 367.87 735.5 368.43C740.53 373.37 745.41 378.48 750.91 382.92C754.35 385.71 757.63 388.7 761.03 391.54C773.9 402.27 787.53 411.96 801.64 420.97C801.98 421.183 802.33 421.383 802.69 421.57C804.12 422.37 805.44 421.73 805.83 420C806.083 418.82 806.29 417.63 806.45 416.43C806.817 413.843 807.157 411.25 807.47 408.65C808.67 398.49 812.2 389.07 816.9 380.1C821.01 372.25 825.48 364.58 830.47 357.23C836.04 349.05 842.03 341.22 848.95 334.13C850.22 332.83 851.39 331.44 852.61 330.1C853.29 329.35 853.9 328.54 854.65 327.88C861.42 321.85 868.07 315.65 875.58 310.53C885.26 303.94 895.21 297.84 906.21 293.6C913.01 290.98 920.02 289.2 927.19 288.01C928.39 287.817 929.597 287.713 930.81 287.7C935.84 287.67 940.9 287.41 945.92 287.73C958.06 288.52 968.54 293.39 977.17 301.89C981.34 305.99 984.68 310.85 987.13 316.23C990.06 322.68 992.12 329.36 993.28 336.4C994.58 344.23 994.73 352.08 993.98 359.9C993.19 368.12 991.51 376.23 988.91 384.11C983.96 399.1 977.52 413.4 969.28 426.88C963.59 436.19 957.22 445.01 950.09 453.25C945.87 458.11 941.14 462.53 936.65 467.16C930.3 473.68 923.06 479.15 915.91 484.73C914.33 485.96 912.57 486.98 910.81 487.96C909.55 488.66 908.14 488.81 906.71 488.35C905.98 488.11 905.39 487.06 905.69 486.43C906.85 484.05 908.56 482.07 910.22 480.04C912.38 477.387 914.57 474.757 916.79 472.15C919.44 469.03 921.33 465.48 922.8 461.71C925.17 455.6 923.46 450.66 919.11 447.01C917.73 445.86 916.18 444.84 914.58 444.04C907.09 440.31 899.26 437.89 890.8 437.88C889.593 437.887 888.383 437.877 887.17 437.85C876.34 437.6 865.95 439.77 855.87 443.61C853.98 444.33 852.09 445.04 850.25 445.84C849.33 446.24 848.44 446.76 847.64 447.36C846.03 448.55 845.41 450.24 845.9 452.17C846.82 455.72 848.41 458.97 850.91 461.7C852.01 462.887 853.147 464.033 854.32 465.14C865.76 476.11 874.89 488.83 882.8 502.52C891.1 516.89 897.55 532.08 903.22 547.63C908.2 561.27 912.19 575.22 915.43 589.38C917.64 599.01 919.4 608.72 920.62 618.53C921.21 623.33 921.86 628.12 922.48 632.91C922.56 633.51 922.69 634.11 922.7 634.71C922.83 643.98 924.37 653.17 924.2 662.47C924.1 667.9 924.15 673.35 924.95 678.76C925.19 680.34 925.14 681.98 925.12 683.59C925.06 691.24 925.38 698.89 924.45 706.54C923.99 710.32 924.22 714.19 924.14 718.01C924.06 721.64 924.06 725.27 923.34 728.85C923.18 729.64 923.13 730.45 923.07 731.26C921.76 749.2 918.54 766.81 914.05 784.21C911.22 795.17 907.69 805.88 902.79 816.08C900.35 821.16 897.56 826.09 894.6 830.88C888.65 840.51 881.61 849.29 874 857.68C867.23 865.16 860.18 872.35 853 879.41C849.41 882.94 845.49 886.13 841.9 889.66C837.02 894.49 831.75 898.88 826.53 903.29C818.98 909.66 811.18 915.73 803.23 921.58C793.48 928.76 783.33 935.34 773.18 941.9C767.08 945.84 760.89 949.62 754.78 953.53C737.96 964.27 721.18 975.06 704.37 985.81C689.937 995.037 675.497 1004.26 661.05 1013.47C646.443 1022.8 631.837 1032.14 617.23 1041.47C602.8 1050.69 588.37 1059.93 573.92 1069.12C563.2 1075.93 552.457 1082.71 541.69 1089.44C540 1090.5 538.15 1091.34 536.31 1092.13C535.62 1092.43 534.74 1092.34 533.95 1092.35C533.29 1092.36 532.48 1091.24 532.66 1090.59C532.86 1089.82 532.99 1088.99 533.37 1088.3C534.93 1085.48 536.43 1082.62 538.2 1079.93C547.09 1066.48 555.68 1052.83 563.87 1038.94C572.48 1024.35 580.41 1009.4 587.78 994.15C594.88 979.45 602.02 964.77 609.04 950.03C614.42 938.75 619.693 927.423 624.86 916.05C630.36 903.94 635.92 891.85 640.8 879.48C644.127 871.04 647.127 862.483 649.8 853.81C654.85 837.44 659.46 820.94 665.13 804.76C665.79 802.86 666.51 800.98 667.29 799.12C667.51 798.61 668.06 798.23 668.48 797.82C668.8 797.51 669.87 797.65 670.13 798.03C670.46 798.52 670.9 799.01 671.02 799.55C671.26 800.73 671.44 801.94 671.44 803.14C671.42 810.19 671.39 817.25 671.25 824.3C671.21 826.3 670.77 828.3 670.55 830.3C669.38 840.92 667.39 851.42 665.29 861.89C663.14 872.56 660.92 883.21 658.25 893.76C652.84 915.08 646.3 936.04 638.36 956.55C635.6 963.69 632.35 970.64 629.36 977.69C628.267 980.29 627.227 982.91 626.24 985.55C626.13 985.83 626.33 986.4 626.58 986.58C626.83 986.77 627.38 986.78 627.68 986.63C628.587 986.19 629.457 985.687 630.29 985.12C645.603 974.667 660.917 964.21 676.23 953.75C677.223 953.07 678.22 952.387 679.22 951.7C696.187 940.093 713.147 928.477 730.1 916.85C741.4 909.09 752.71 901.35 763.94 893.5C775.34 885.53 786.71 877.51 797.67 868.95C803.54 864.36 809.32 859.66 814.97 854.78C819.7 850.69 824.2 846.36 828.81 842.15C832.68 838.62 836.62 835.18 840.28 831.43C843.24 828.39 846.28 825.46 848.95 822.16C850.34 820.44 851.95 818.89 853.53 817.34C859.47 811.5 864.19 804.74 868.55 797.69C873.12 790.28 876.49 782.3 879.71 774.25C884.05 763.38 887.46 752.2 890.17 740.82C892.28 731.98 893.74 723.04 894.94 714.05C895.6 709.05 896.2 704.06 896.22 699.01C896.22 698.403 896.263 697.8 896.35 697.2C897.77 687.57 897.09 677.88 897.1 668.22C897.1 666.62 896.82 665.01 896.67 663.41C896.53 662 896.24 660.6 896.26 659.2C896.36 653.12 895.46 647.13 894.66 641.15C893.58 633.17 892.24 625.21 890.44 617.35C885.9 597.44 879.22 578.24 871.15 559.51C866.68 549.13 861.69 539 856.36 529.06C845.78 509.31 834.17 490.2 820.4 472.48C816.69 467.71 812.59 463.25 808.81 458.55C803.99 452.56 798.56 447.16 792.98 441.91C787.4 436.67 781.6 431.67 775.87 426.6C772.25 423.39 768.54 420.3 764.93 417.07C759.52 412.24 754.21 407.3 748.79 402.48C742.75 397.13 736.78 391.73 731.12 385.98C727.45 382.24 723.63 378.64 720.1 374.77C713.58 367.63 707.22 360.32 701.93 352.19C700.84 350.5 699.82 348.75 699 346.92C698 344.69 698.43 342.54 700.14 340.78C700.97 339.92 701.92 339.14 702.94 338.51C716.62 330.02 731.22 323.95 747.24 321.6C747.64 321.54 748.05 321.53 748.45 321.46C755.01 320.37 755.19 319.62 756.87 314.4C759.28 306.91 761.93 299.52 764.95 292.26C771.57 276.37 779.84 261.4 790.05 247.55C795.44 240.25 801.37 233.38 807.78 226.94C813.62 221.07 820.03 215.84 826.66 210.92C833.78 205.63 841.31 200.96 849.18 196.8C863.7 189.14 878.94 183.41 894.8 179.32C902.81 177.25 910.95 175.95 919.18 175.02C926.42 174.19 933.64 174.02 940.9 174.07C943.92 174.09 946.92 174.29 949.93 174.75C954.11 175.38 958.34 175.54 962.52 176.27C975.9 178.58 988.83 182.32 1001.2 187.91C1008.18 191.06 1014.99 194.56 1021.54 198.58C1028.08 202.6 1034.19 207.2 1040.09 212.09C1044.13 215.43 1048.1 218.84 1051.74 222.62C1064.14 235.47 1074.68 249.63 1082.84 265.55C1089.22 277.97 1094.29 290.88 1097.79 304.4C1099.77 312.02 1100.96 319.77 1102.06 327.57C1103.43 337.41 1103.17 347.27 1103.07 357.14C1103.04 359.95 1102.7 362.76 1102.39 365.56C1101.9 369.96 1101.57 374.38 1100.83 378.76C1097.94 395.92 1093.6 412.67 1086.79 428.7C1080.06 444.55 1071.35 459.26 1060.46 472.64C1058.67 474.827 1056.88 477.01 1055.09 479.19C1054.84 479.503 1054.59 479.82 1054.34 480.14C1051.32 484.13 1050.3 488.42 1052.35 493.18C1053.86 496.7 1055.23 500.28 1056.87 503.74C1064.22 519.23 1072.65 534.14 1081.79 548.65C1085.65 554.79 1089.46 560.97 1093.37 567.08C1102.18 580.84 1111.79 594.03 1121.69 607.02C1131.83 620.33 1141.95 633.64 1152.25 646.82C1160.06 656.827 1168.07 666.667 1176.3 676.34C1185.58 687.25 1195.25 697.78 1205.57 707.71C1208.47 710.5 1211.53 713.13 1214.51 715.84C1214.66 715.967 1214.82 716.097 1214.97 716.23C1221.19 721.97 1227.55 727.56 1233.6 733.48C1243.53 743.21 1253.37 753.05 1263.04 763.04C1268.63 768.83 1273.85 774.99 1279.19 781.02C1282.67 784.94 1286.1 788.897 1289.49 792.89C1296.92 801.65 1304.34 810.42 1311.32 819.54C1319.16 829.78 1327.03 840 1334.71 850.36C1345.41 864.78 1355.19 879.807 1364.04 895.44C1369.59 905.273 1374.63 915.363 1379.16 925.71C1382.75 933.93 1384.9 942.46 1385.72 951.36C1385.99 954.23 1385.54 956.99 1384.51 959.65C1384.4 959.95 1383.93 960.23 1383.58 960.3C1383.25 960.36 1382.67 960.25 1382.52 960.02C1381.48 958.3 1380.43 956.59 1379.56 954.78C1375.08 945.49 1369.74 936.71 1363.71 928.37C1359.23 922.17 1354.47 916.15 1349.69 910.18C1344.53 903.73 1339.1 897.5 1333.55 891.37C1329.5 886.89 1325.64 882.23 1321.7 877.65C1321.44 877.343 1321.17 877.043 1320.89 876.75C1313.86 869.26 1306.9 861.7 1299.76 854.3C1293.47 847.78 1287 841.42 1280.56 835.03C1271.4 825.95 1261.86 817.26 1252.17 808.75C1247.63 804.77 1243.16 800.7 1238.62 796.71C1236.04 794.457 1233.43 792.24 1230.79 790.06C1225.51 785.693 1220.22 781.343 1214.91 777.01C1213.66 775.99 1212.37 775.01 1211 774.16C1210.17 773.65 1209.17 773.31 1208.21 773.14C1205.91 772.74 1204.16 774.04 1203.87 776.26C1203.72 777.45 1203.61 778.67 1203.61 779.87C1203.65 789.17 1202.48 798.35 1201.31 807.55C1199.92 818.36 1197.85 829.03 1195.47 839.65C1191.58 856.977 1186.68 874.013 1180.78 890.76C1175.49 905.78 1169.68 920.6 1163.48 935.27C1155.56 954.043 1146.88 972.447 1137.43 990.48C1132.66 999.59 1127.6 1008.54 1122.58 1017.5C1115.97 1029.28 1109 1040.85 1101.68 1052.2C1095.46 1061.86 1089.04 1071.39 1082.5 1080.83C1076.19 1089.94 1069.67 1098.91 1063.14 1107.87C1056.25 1117.31 1049.1 1126.55 1041.69 1135.6C1036.46 1141.99 1031.03 1148.22 1025.69 1154.53C1022.18 1158.68 1018.68 1162.85 1015.14 1166.97C1011.73 1170.95 1008.17 1174.8 1004.85 1178.85C1000.5 1184.16 995.69 1189.03 991.02 1194.04C986.49 1198.9 982.34 1204.11 977.85 1209.02C971.6 1215.86 966 1223.26 959.77 1230.13C953.69 1236.85 948.04 1243.96 942.59 1251.21C936.28 1259.58 930.07 1268.02 924.24 1276.74C920.55 1282.26 916.51 1287.56 912.73 1293.02C907.21 1300.97 901.8 1308.99 896.32 1316.96C893.81 1320.62 891.3 1324.27 888.72 1327.87C881.91 1337.38 875.27 1346.99 868.86 1356.77C861.24 1368.41 853.947 1380.25 846.98 1392.28C841.63 1401.53 836.34 1410.82 831.41 1420.29C824.81 1432.98 818.5 1445.83 812.22 1458.69C809.31 1464.66 806.73 1470.8 804.07 1476.9C797.797 1491.32 792.04 1505.94 786.8 1520.77C783.3 1530.64 780.21 1540.67 777.01 1550.64C773 1563.12 769.77 1575.82 766.7 1588.56C763.69 1601.1 761.15 1613.74 759.43 1626.54C758.37 1634.52 757.22 1642.5 757.08 1650.58C757.07 1650.98 757.08 1651.39 757.01 1651.78C755.88 1658.38 756.16 1665.04 756.04 1671.69C756.01 1673.29 755.8 1674.89 755.58 1676.48C755.45 1677.45 753.86 1677.95 753.15 1677.28C752.42 1676.6 751.68 1675.91 751.04 1675.15C745.45 1668.51 740.5 1661.39 735.53 1654.29C726.99 1642.06 718.99 1629.46 711.63 1616.48C704.97 1604.74 698.57 1592.84 693.23 1580.42C689.89 1572.64 686.4 1564.92 683.26 1557.07C675.77 1538.32 669.82 1519.08 665.04 1499.47C661.36 1484.38 658.483 1469.14 656.41 1453.75C655.87 1449.76 655.24 1445.78 654.71 1441.79C654.47 1439.99 654.34 1438.18 654.18 1436.38C654.03 1434.77 654.03 1433.14 653.75 1431.56C653.17 1428.37 653.01 1425.16 652.92 1421.93C652.89 1420.73 652.9 1419.5 652.7 1418.32C651.71 1412.52 651.8 1406.67 651.75 1400.83C651.7 1395.59 651.74 1390.35 651.74 1385.1C651.747 1385.1 651.757 1385.1 651.77 1385.1ZM837.09 410.94C837.09 412.15 837.07 413.35 837.1 414.56C837.153 416.587 837.517 418.557 838.19 420.47C838.63 421.72 839.73 422.3 841.07 421.9C841.84 421.67 842.62 421.44 843.36 421.14C851.04 418.02 859.03 415.97 867.1 414.24C873.01 412.97 878.97 412.06 885.05 412.18C888.88 412.25 892.7 412.2 896.53 412.25C898.13 412.28 899.75 412.35 901.34 412.56C912.81 414.09 923.77 417.31 934.05 422.69C935.83 423.63 937.62 424.547 939.42 425.44C942.83 427.12 943.93 426.75 945.63 423.41C946.003 422.697 946.353 421.97 946.68 421.23C950.16 413.08 953.39 404.85 956.06 396.39C959.79 384.6 961.37 372.45 962.28 360.19C962.41 358.39 962.22 356.57 962.09 354.77C961.95 352.96 961.6 351.17 961.5 349.37C961.32 346.12 960.52 343.01 959.61 339.92C958.11 334.79 955.43 330.42 951.5 326.71C947.34 322.77 942.53 320.8 936.85 320.52C928.42 320.11 920.43 321.7 912.88 325.46C909.82 326.98 906.75 328.51 903.73 330.1C894.06 335.2 885.25 341.56 877.16 348.87C867.44 357.65 858.67 367.36 850.14 377.3C848.96 378.67 847.87 380.12 846.82 381.59C840.54 390.37 837.53 400.23 837.09 410.94Z" fill="white"/>
<path d="M1083.32 154.64C1085.94 154.647 1088.56 154.643 1091.18 154.63C1095.02 154.61 1098.8 155.22 1102.61 155.59C1110.05 156.33 1117.34 157.85 1124.6 159.51C1138.4 162.66 1151.71 167.29 1164.71 172.83C1184.04 181.09 1202.4 191.11 1219.9 202.76C1233.84 212.03 1247.17 222.11 1260.23 232.58C1267.62 238.5 1274.61 244.89 1281.86 250.98C1283.25 252.15 1284.49 253.48 1285.82 254.72C1290.38 258.98 1294.78 263.41 1299.48 267.54C1303.71 271.26 1307.63 275.34 1311.34 279.6C1314.26 282.93 1317.39 286.08 1320.47 289.27C1326.48 295.51 1332.15 302.06 1337.73 308.69C1342.53 314.39 1347.39 320.04 1352.11 325.81C1362.18 338.14 1371.8 350.82 1381.13 363.73C1388.92 374.52 1396.48 385.46 1403.74 396.6C1412.65 410.28 1421.3 424.12 1429.35 438.33C1434.12 446.75 1438.89 455.16 1443.31 463.77C1446.8 470.58 1450.52 477.28 1453.89 484.15C1464.36 505.51 1474.05 527.22 1482.76 549.36C1489.33 566.06 1495.4 582.93 1500.78 600.05C1507.73 622.17 1513.49 644.607 1518.04 667.36C1520.57 680 1522.84 692.7 1524.77 705.45C1525.97 713.41 1526.63 721.45 1527.77 729.42C1528.69 735.83 1528.83 742.26 1529 748.71C1529.05 750.72 1529.43 752.71 1529.55 754.72C1529.72 757.333 1529.81 759.947 1529.82 762.56C1529.82 763.32 1529.42 764.1 1529.16 764.85C1528.92 765.58 1527.6 765.87 1527.15 765.27C1526.55 764.47 1525.84 763.7 1525.51 762.79C1524.62 760.323 1523.83 757.827 1523.13 755.3C1519.07 740.91 1513.45 727.12 1507.03 713.63C1496.17 690.77 1482.43 669.7 1467.51 649.35C1461.31 640.897 1454.87 632.633 1448.19 624.56C1444.33 619.91 1440.25 615.45 1436.3 610.87C1423.38 595.89 1409.06 582.28 1394.91 568.52C1388.99 562.76 1382.65 557.45 1376.46 551.98C1372.54 548.5 1368.62 545.02 1364.58 541.7C1358.04 536.33 1351.49 530.97 1344.79 525.81C1329.62 514.12 1313.99 503.06 1298.03 492.47C1288.46 486.11 1278.92 479.71 1269.34 473.37C1253.54 462.92 1238.07 451.99 1222.56 441.11C1214.14 435.217 1205.67 429.4 1197.14 423.66C1186.27 416.34 1175.51 408.88 1165.22 400.76C1160.8 397.27 1156.56 393.54 1152.28 389.86C1148.31 386.45 1144.39 382.98 1140.47 379.5C1139.72 378.84 1138.98 378.13 1138.43 377.31C1138.15 376.89 1138.08 376.05 1138.33 375.65C1138.58 375.24 1139.31 375.02 1139.87 374.94C1140.44 374.86 1141.08 374.98 1141.65 375.16C1142.61 375.46 1143.55 375.82 1144.46 376.24C1150.13 378.867 1155.79 381.51 1161.44 384.17C1176.22 391.1 1190.91 398.22 1205.79 404.93C1219.93 411.3 1234.24 417.32 1248.53 423.36C1263.2 429.55 1277.67 436.16 1291.94 443.25C1308.91 451.68 1325.46 460.88 1341.66 470.73C1358.55 481 1374.69 492.37 1390.33 504.45C1396.24 509.01 1401.98 513.75 1407.41 518.87C1411.82 523.037 1416.67 526.633 1421.94 529.66C1422.51 529.99 1423.43 529.91 1423.57 529.51C1423.7 529.15 1423.86 528.75 1423.83 528.39C1423.76 527.79 1423.59 527.2 1423.39 526.63C1422.73 524.73 1422.1 522.81 1421.33 520.95C1413.9 503.07 1405.48 485.65 1396.36 468.59C1388.08 453.12 1379.09 438.07 1369.49 423.39C1357.9 405.67 1345.83 388.3 1332.86 371.56C1324.84 361.21 1316.66 350.99 1308.11 341.06C1300.75 332.5 1293.13 324.19 1285.52 315.87C1278.71 308.42 1271.59 301.3 1264.47 294.19C1261.48 291.2 1258.28 288.43 1255.17 285.56C1254.58 285.01 1253.96 284.49 1253.38 283.92C1243.87 274.62 1233.71 266.05 1223.47 257.55C1208.89 245.44 1193.7 234.15 1178.09 223.39C1167.13 215.843 1155.92 208.697 1144.46 201.95C1139.25 198.88 1133.93 196 1128.64 193.08C1125.47 191.32 1122.26 189.63 1119.06 187.92C1117.82 187.25 1116.57 186.58 1115.3 185.98C1099.08 178.32 1082.79 170.83 1065.72 165.17C1064 164.597 1062.33 163.91 1060.7 163.11C1059.4 162.46 1058.59 161.3 1058.16 159.87C1057.8 158.63 1058.3 157.22 1059.38 156.8C1060.13 156.51 1060.88 156.19 1061.67 156.04C1065.82 155.23 1069.98 154.47 1074.25 154.59C1077.27 154.68 1080.29 154.61 1083.32 154.61C1083.32 154.617 1083.32 154.627 1083.32 154.64Z" fill="white"/>
<path d="M523.63 1501.54C523.617 1496.9 523.617 1492.26 523.63 1487.63C523.65 1483.6 523.65 1479.56 524.39 1475.58C524.49 1474.98 524.547 1474.38 524.56 1473.77C524.7 1467.72 525.05 1461.7 525.88 1455.7C526.65 1450.11 527.17 1444.5 527.92 1438.91C528.72 1432.92 529.58 1426.94 530.57 1420.98C533.33 1404.27 536.74 1387.69 540.89 1371.27C545.14 1354.46 550.08 1337.85 555.9 1321.51C561.57 1305.56 567.87 1289.85 575 1274.47C578.72 1266.42 582.47 1258.39 586.6 1250.54C594.3 1235.92 602.41 1221.51 611.44 1207.66C619.26 1195.67 627.17 1183.74 635.85 1172.36C644.04 1161.62 652.47 1151.09 661.31 1140.87C671.48 1129.13 682.03 1117.78 693.13 1106.92C697.31 1102.82 701.96 1099.28 706.31 1095.37C708.41 1093.48 710.557 1091.66 712.75 1089.89C714.47 1088.5 716.27 1087.2 718.07 1085.93C718.55 1085.59 719.18 1085.48 719.75 1085.29C720.39 1085.08 721.48 1086.07 721.33 1086.72C721.19 1087.3 721.15 1087.95 720.86 1088.45C719.84 1090.18 718.8 1091.9 717.66 1093.56C713.3 1099.86 708.89 1106.12 704.53 1112.41C701.19 1117.21 697.83 1122 694.59 1126.85C681.15 1146.97 668.22 1167.41 656.08 1188.33C646.46 1204.89 637.63 1221.88 629.2 1239.08C619.88 1258.1 611.56 1277.55 604.02 1297.33C593.58 1324.68 585.27 1352.67 578.83 1381.22C576.17 1393.02 574 1404.92 572.23 1416.88C570.99 1425.24 569.69 1433.62 568.9 1442.03C568.27 1448.84 567.14 1455.63 567.23 1462.5C567.25 1463.91 567.24 1465.34 567 1466.72C566.09 1472.12 566.16 1477.57 566.14 1483.01C566.12 1492.68 566.11 1502.36 566.22 1512.03C566.25 1515.25 566.63 1518.46 566.87 1521.67C566.95 1522.67 567.13 1523.67 567.15 1524.68C567.26 1530.32 567.8 1535.93 568.39 1541.54C569.223 1549.35 570.247 1557.14 571.46 1564.9C573.69 1579.26 576.84 1593.42 580.63 1607.43C582.157 1613.07 583.81 1618.67 585.59 1624.24C589.09 1635.18 592.77 1646.06 597.21 1656.67C600.32 1664.11 603.49 1671.52 607.12 1678.73C609.84 1684.13 612.5 1689.56 615.26 1694.94C620.32 1704.81 625.88 1714.4 631.94 1723.69C639.09 1734.67 646.44 1745.51 654.52 1755.83C660.61 1763.61 667.09 1771.05 673.56 1778.51C681.1 1787.21 689.28 1795.27 697.5 1803.28C703.56 1809.18 709.97 1814.72 716.41 1820.21C725.46 1827.93 734.85 1835.21 744.37 1842.33C755.04 1850.31 766.22 1857.5 777.66 1864.3C784.07 1868.12 790.48 1871.92 796.87 1875.76C798.77 1876.91 800.6 1878.16 802.41 1879.44C802.87 1879.76 803.14 1880.36 803.49 1880.85C803.79 1881.28 803.4 1882.31 802.89 1882.35C802.11 1882.41 801.29 1882.56 800.55 1882.39C796.42 1881.45 792.3 1880.49 788.2 1879.42C773.17 1875.49 758.41 1870.72 744.03 1864.83C729.84 1859.02 716.14 1852.21 702.77 1844.7C687.79 1836.27 673.86 1826.32 660.41 1815.69C655.68 1811.95 651.04 1808.06 646.72 1803.81C642.69 1799.87 638.16 1796.46 634.34 1792.28C628.49 1785.89 622.51 1779.63 616.92 1773C612.1 1767.31 607.45 1761.48 602.97 1755.52C594.11 1743.75 586 1731.48 578.7 1718.69C568.08 1700.11 558.75 1680.93 551.25 1660.86C544.963 1644.03 539.767 1626.88 535.66 1609.4C533.267 1599.19 531.277 1588.91 529.69 1578.55C528.43 1570.39 527.12 1562.22 526.36 1554C525.7 1546.99 524.53 1540.01 524.69 1532.93C524.72 1531.72 524.72 1530.49 524.54 1529.3C523.16 1520.08 523.77 1510.8 523.63 1501.54Z" fill="white"/>
<path d="M328.9 1389.97C328.893 1385.94 328.897 1381.91 328.91 1377.88C328.93 1374.25 328.97 1370.62 329.64 1367.03C329.82 1366.05 329.87 1365.03 329.92 1364.03C330.47 1352.13 332.24 1340.39 334.39 1328.69C337.09 1313.99 340.81 1299.57 345.71 1285.46C348.75 1276.69 352.23 1268.11 356.25 1259.74C362.2 1247.37 368.77 1235.36 376.45 1223.97C382.643 1214.77 389.39 1205.99 396.69 1197.63C403.33 1190.05 410.18 1182.67 416.84 1175.11C426.71 1163.93 436.47 1152.66 445.36 1140.68C452.34 1131.28 458.88 1121.58 464.25 1111.17C468.32 1103.3 471.9 1095.18 474.22 1086.56C475.32 1082.48 476.41 1078.39 477.59 1074.32C477.86 1073.38 478.41 1072.52 478.87 1071.64C479.07 1071.27 480.27 1071.22 480.52 1071.55C480.76 1071.86 481.11 1072.15 481.21 1072.51C482.78 1077.95 484.11 1083.4 483.17 1089.16C482.85 1091.14 482.9 1093.18 482.86 1095.19C482.78 1099.02 482.66 1102.85 482.75 1106.68C482.9 1113.36 482.04 1119.95 481.28 1126.55C481 1128.94 480.41 1131.32 479.75 1133.64C477.58 1141.22 474.63 1148.48 470.72 1155.35C462.54 1169.71 453.87 1183.78 445.2 1197.85C443.2 1201.11 441.11 1204.33 439.14 1207.61C432.62 1218.51 426.38 1229.54 421.2 1241.18C415.96 1252.97 411 1264.87 407.09 1277.18C402.14 1292.75 398.18 1308.58 395.52 1324.72C394.44 1331.28 393.31 1337.83 392.4 1344.41C391.66 1349.79 391.22 1355.22 390.65 1360.63C390.537 1361.83 390.41 1363.03 390.27 1364.23C390.14 1365.23 389.9 1366.22 389.84 1367.22C389.35 1375.26 388.72 1383.3 388.47 1391.35C388.24 1398.8 388.39 1406.26 388.41 1413.72C388.42 1418.15 388.37 1422.59 389.2 1426.98C389.273 1427.37 389.31 1427.77 389.31 1428.18C389.27 1435.05 390.15 1441.85 390.79 1448.66C391.13 1452.27 391.6 1455.87 392.08 1459.46C394.64 1478.46 398.4 1497.22 403.56 1515.68C408.38 1532.97 414.24 1549.91 421.01 1566.55C427.65 1582.83 435.64 1598.39 444.75 1613.41C452.82 1626.71 461.93 1639.27 471.88 1651.19C477.69 1658.14 483.64 1665.01 490.28 1671.2C491.16 1672.02 492.15 1672.7 493.11 1673.42C493.22 1673.5 493.53 1673.4 493.69 1673.3C493.84 1673.2 494.02 1672.97 494 1672.82C493.6 1669.43 493.12 1666.05 492.76 1662.65C491.98 1655.45 490.84 1648.27 490.88 1641C490.91 1636.36 490.83 1631.72 490.84 1627.09C490.9 1608.96 494.31 1591.45 500.5 1574.45C500.85 1573.52 501.36 1572.64 501.84 1571.76C502.2 1571.1 503.43 1571.07 503.96 1571.61C504.71 1572.36 505.16 1573.27 505.25 1574.27C505.42 1576.07 505.45 1577.88 505.46 1579.69C505.527 1588.96 505.59 1598.24 505.65 1607.51C505.67 1610.73 505.78 1613.95 506.38 1617.14C506.57 1618.13 506.64 1619.14 506.72 1620.14C507.74 1633.83 510.07 1647.31 512.89 1660.73C514.96 1670.61 517.65 1680.32 520.6 1689.95C523.5 1699.4 527.013 1708.62 531.14 1717.61C531.8 1719.08 532.393 1720.57 532.92 1722.09C533.01 1722.36 532.75 1722.89 532.49 1723.11C532.23 1723.34 531.74 1723.48 531.4 1723.41C529.19 1722.95 527.31 1721.73 525.44 1720.57C520.973 1717.82 516.54 1715.03 512.14 1712.19C497.58 1702.75 483.69 1692.39 470.32 1681.34C465.36 1677.23 460.43 1673.08 455.82 1668.55C452.51 1665.31 448.91 1662.37 445.59 1659.14C437.65 1651.4 430.38 1643.04 423.04 1634.74C415.95 1626.72 409.49 1618.22 403.14 1609.64C394.38 1597.8 386.53 1585.37 379.19 1572.6C373.76 1563.16 368.87 1553.43 364.21 1543.6C358.68 1531.95 353.63 1520.08 349.49 1507.84C345.75 1496.77 342.06 1485.68 339.23 1474.32C336.41 1462.97 334.21 1451.5 332.45 1439.94C331.24 1431.97 330.62 1423.94 329.79 1415.93C328.9 1407.27 328.96 1398.63 328.9 1389.97Z" fill="white"/>
<path d="M989.3 1405.34C989.79 1404.99 990.33 1404.69 990.77 1404.28C998 1397.57 1005.2 1390.81 1012.46 1384.13C1022.09 1375.25 1031.76 1366.43 1042.13 1358.4C1049.3 1352.85 1056.36 1347.17 1063.62 1341.74C1069.75 1337.15 1076.04 1332.78 1082.34 1328.42C1091.45 1322.12 1100.63 1315.9 1109.8 1309.69C1128.32 1297.14 1146.87 1284.63 1165.39 1272.09C1167.39 1270.74 1169.38 1269.35 1171.25 1267.83C1177.81 1262.46 1184.79 1257.67 1191.59 1252.64C1197.59 1248.21 1203.52 1243.69 1209.51 1239.26C1216.01 1234.47 1221.92 1228.99 1228.09 1223.8C1231.63 1220.82 1235.02 1217.65 1238.66 1214.78C1243.26 1211.15 1247.44 1207.07 1251.58 1202.95C1257.44 1197.13 1263.31 1191.3 1268.93 1185.25C1274.28 1179.5 1279.32 1173.47 1284.23 1167.33C1292.03 1157.56 1299.32 1147.41 1306.23 1137C1311.13 1129.62 1315.78 1122.07 1320 1114.25C1325.46 1104.13 1330.2 1093.69 1334.42 1082.99C1338.56 1072.48 1341.86 1061.69 1344.83 1050.8C1347.01 1042.83 1349.27 1034.89 1350.85 1026.76C1350.99 1026.01 1351.44 1025.3 1351.86 1024.64C1351.96 1024.49 1352.63 1024.53 1352.89 1024.7C1353.18 1024.9 1353.41 1025.33 1353.49 1025.7C1354.14 1028.45 1354.64 1031.22 1354.64 1034.06C1354.66 1042.12 1354.83 1050.19 1354.59 1058.24C1354.46 1062.65 1353.77 1067.06 1353.07 1071.43C1350.19 1089.43 1345.17 1106.81 1337.77 1123.48C1335.49 1128.64 1333.26 1133.82 1331 1138.99C1328.34 1145.1 1324.93 1150.83 1321.64 1156.6C1315.45 1167.47 1308.55 1177.87 1300.94 1187.81C1295.42 1195.01 1289.54 1201.9 1283.62 1208.77C1276.11 1217.49 1267.85 1225.46 1259.7 1233.55C1254.26 1238.94 1248.31 1243.78 1242.57 1248.84C1235.91 1254.7 1228.93 1260.16 1221.91 1265.57C1210.41 1274.43 1198.56 1282.81 1186.26 1290.51C1175.66 1297.15 1165.37 1304.21 1155.23 1311.52C1145.58 1318.46 1135.93 1325.41 1126.23 1332.28C1117.17 1338.68 1108.37 1345.41 1099.76 1352.39C1094.13 1356.96 1088.46 1361.49 1082.92 1366.16C1078.14 1370.18 1073.52 1374.38 1068.82 1378.5C1066.25 1380.75 1063.56 1382.9 1061.1 1385.27C1050.22 1395.75 1038.84 1405.72 1028.42 1416.68C1021.34 1424.13 1014.32 1431.62 1007.63 1439.42C1004.62 1442.94 1001.56 1446.43 998.47 1449.88C991.19 1457.98 984.44 1466.5 978.04 1475.31C969 1487.75 961.16 1500.87 955.59 1515.25C954.43 1518.24 953.58 1521.35 952.53 1524.38C952.44 1524.63 951.88 1524.75 951.52 1524.85C951.39 1524.89 951.14 1524.73 951.03 1524.59C950.78 1524.29 950.49 1523.97 950.38 1523.61C950.01 1522.46 949.61 1521.3 949.4 1520.12C948.24 1513.78 946.88 1507.47 946.74 1500.99C945.31 1491.57 945.74 1482.09 945.76 1472.63C945.77 1468.8 945.94 1464.99 946.42 1461.17C946.79 1458.18 946.74 1455.14 946.82 1452.12C946.92 1448.29 946.93 1444.46 947.65 1440.68C947.88 1439.5 947.87 1438.27 948 1437.07C948.54 1431.86 948.96 1426.64 949.68 1421.46C951.073 1411.48 952.86 1401.57 955.04 1391.73C957.21 1381.88 959.72 1372.13 962.66 1362.49C965.6 1352.85 968.84 1343.3 972.63 1333.96C978.84 1318.64 985.73 1303.64 993.89 1289.23C999.86 1278.7 1006.13 1268.37 1013.01 1258.42C1020.34 1247.8 1028.14 1237.55 1036.57 1227.76C1040.91 1222.71 1045.42 1217.84 1050.04 1213.06C1051.01 1212.04 1052 1211.03 1052.88 1209.93C1054.66 1207.71 1056.68 1205.77 1058.86 1203.96C1060.4 1202.67 1061.86 1201.27 1063.27 1199.83C1070.8 1192.23 1078.98 1185.36 1087.38 1178.76C1099.12 1169.55 1111.31 1160.98 1124.12 1153.3C1140.23 1143.64 1156.96 1135.26 1174.47 1128.43C1183.49 1124.91 1192.67 1121.9 1201.89 1118.95C1202.66 1118.7 1203.44 1118.52 1204.24 1118.41C1204.54 1118.37 1204.89 1118.67 1205.21 1118.81C1205 1119.13 1204.87 1119.6 1204.57 1119.76C1202.98 1120.62 1201.38 1121.49 1199.72 1122.2C1188 1127.18 1176.98 1133.48 1166.26 1140.31C1154.01 1148.12 1142.49 1156.92 1131.23 1166.08C1126.84 1169.65 1122.83 1173.62 1118.56 1177.3C1114.13 1181.12 1109.95 1185.19 1105.82 1189.33C1099.42 1195.75 1093.48 1202.6 1087.57 1209.48C1079.29 1219.11 1071.39 1229.05 1064.05 1239.4C1058.92 1246.64 1054.1 1254.08 1049.23 1261.49C1043.37 1270.43 1038.23 1279.8 1033.15 1289.19C1028.56 1297.7 1024.3 1306.38 1020.32 1315.21C1015.92 1324.95 1011.99 1334.87 1008.05 1344.8C1003.3 1356.8 999.41 1369.1 995.68 1381.44C994.167 1386.45 992.727 1391.49 991.36 1396.55C990.58 1399.47 990 1402.43 989.34 1405.38L989.3 1405.34Z" fill="white"/>
<path d="M977.27 56.7801C980.3 56.7801 983.32 56.7 986.34 56.8C988.95 56.89 991.56 57.1801 994.16 57.4001C995.17 57.4901 996.16 57.6701 997.16 57.7401C1017.78 59.1301 1037.79 63.56 1057.5 69.55C1067.34 72.55 1077.04 75.9101 1086.58 79.7401C1099.48 84.9301 1112.19 90.5901 1124.4 97.2501C1135.54 103.32 1146.59 109.58 1157.18 116.61C1167.42 123.41 1177.63 130.24 1187.42 137.68C1196.25 144.38 1204.94 151.25 1213.43 158.37C1214.34 159.13 1215.13 160.08 1215.82 161.06C1216.11 161.48 1216.09 162.2 1216.05 162.77C1216.01 163.35 1214.86 164.1 1214.2 164.09C1213.79 164.09 1213.39 164.12 1212.99 164.07C1212.39 163.99 1211.8 163.88 1211.21 163.74C1199.83 161.07 1188.51 158.18 1177.52 154.16C1173.15 152.56 1168.99 150.54 1164.97 148.21C1155.73 142.86 1146.39 137.68 1136.72 133.14C1126.51 128.347 1116.12 123.957 1105.56 119.97C1090.63 114.33 1075.36 109.93 1059.83 106.38C1051.19 104.4 1042.5 102.7 1033.69 101.59C1028.9 100.99 1024.14 100.01 1019.33 99.6601C1011.9 99.1201 1004.53 97.8401 997.05 98.0001C993.43 98.0801 989.81 97.8201 986.2 97.3801C981.59 96.8201 976.93 96.8 972.32 97.33C967.7 97.87 963.08 97.9601 958.45 98.0701C954.83 98.1501 951.22 98.3501 947.62 98.8801C943.44 99.5101 939.22 99.8201 935.02 100.32C921.38 101.94 908.02 104.89 894.78 108.45C884.27 111.27 873.97 114.8 863.86 118.81C858.99 120.74 854.16 122.8 849.44 125.07C840.36 129.42 831.28 133.79 822.6 138.93C821.23 139.73 819.69 140.29 818.18 140.79C817.73 140.94 816.92 140.67 816.58 140.31C816.24 139.95 816.08 139.19 816.2 138.69C816.38 137.92 816.8 137.19 817.23 136.52C820.5 131.43 824.09 126.59 827.93 121.91C831.903 117.077 836.12 112.473 840.58 108.1C852.6 96.3101 866.01 86.4501 881.01 78.7601C899.09 69.4934 918.157 63.2601 938.21 60.0601C944.58 59.0501 950.96 58.3101 957.37 57.6301C964.01 56.9101 970.63 56.7501 977.27 56.7801Z" fill="white"/>
<path d="M551.21 467.85C557.46 467.85 563.71 467.83 569.95 467.86C571.56 467.87 573.19 467.92 574.77 468.16C575.73 468.31 576.66 468.79 577.54 469.26C578.58 469.81 578.98 471.28 578.63 472.44C578.26 473.64 577.61 474.66 576.59 475.35C575.583 476.023 574.523 476.597 573.41 477.07C565.98 480.2 558.37 482.87 550.58 484.96C544.74 486.52 538.82 487.77 532.94 489.13C525.87 490.77 518.8 492.36 511.74 494.02C510.37 494.34 509.01 494.76 507.71 495.3C505.09 496.4 503.51 498.35 503.3 501.27C503.22 502.47 503.21 503.69 503.14 504.89C502.83 510.23 501.37 515.23 498.27 519.63C496.07 522.75 493.84 525.89 491.32 528.75C485.85 534.97 479.69 540.47 473.05 545.43C460.16 555.05 445.88 561.93 430.71 567.08C420.91 570.41 411 570.87 400.92 568.76C399.93 568.55 398.93 568.42 397.95 568.17C392.21 566.67 386.76 567.76 381.48 570.1C378.51 571.41 375.85 573.22 373.17 575.02C364.81 580.647 356.43 586.24 348.03 591.8C335.25 600.24 322.42 608.61 310.15 617.78C305.79 621.033 301.603 624.503 297.59 628.19C294.03 631.46 290.32 634.57 286.64 637.7C285.26 638.87 283.77 639.92 282.31 640.99C281.37 641.68 280.11 641.75 279.51 641.19C278.87 640.59 278.67 639.78 278.85 638.98C279.15 637.61 279.47 636.22 279.99 634.92C281.33 631.56 282.69 628.19 284.58 625.07C285.73 623.18 286.67 621.17 287.77 619.24C292.89 610.28 298.94 602 305.92 594.4C310.3 589.62 315.23 585.48 320.65 581.94C328.4 576.86 336.17 571.81 344.04 566.91C355.32 559.87 366.71 553 378.02 546.01C382.487 543.243 386.643 540.067 390.49 536.48C392.263 534.833 394.09 533.25 395.97 531.73C398.963 529.31 401.543 526.503 403.71 523.31C406.203 519.643 408.453 515.827 410.46 511.86C411.59 509.64 412.02 507.38 411.65 504.86C411.25 502.08 411.11 499.25 410.96 496.44C410.89 495.24 410.98 494.02 411.14 492.82C411.68 488.94 413.66 486.02 417.28 484.45C419.3 483.58 421.43 482.88 423.59 482.42C429.69 481.12 435.82 479.88 441.96 478.8C450.493 477.293 459.037 475.873 467.59 474.54C472.17 473.82 476.77 473.29 481.36 472.71C486.76 472.037 492.157 471.387 497.55 470.76C499.15 470.57 500.76 470.49 502.37 470.35C504.977 470.123 507.583 469.883 510.19 469.63C510.99 469.56 511.78 469.35 512.58 469.34C522.46 469.28 532.25 467.58 542.14 467.87C545.16 467.96 548.19 467.88 551.21 467.88C551.21 467.867 551.21 467.857 551.21 467.85ZM424.7 537.73C424.9 537.76 425.11 537.83 425.3 537.81C429.28 537.25 433.31 536.91 437.23 536.07C446.87 534.02 455.28 529.36 462.92 523.23C464.17 522.22 465.37 521.14 466.63 520.13C470.59 516.97 474 513.28 477.03 509.24C477.51 508.6 477.88 507.88 478.23 507.16C478.82 505.96 477.92 504.15 476.64 503.71C475.05 503.17 473.45 503.23 471.87 503.56C468.91 504.19 465.99 505.04 463.33 506.51C459.64 508.56 455.92 510.6 452.4 512.92C442.63 519.37 433.71 526.91 424.87 534.55C424.42 534.93 424.03 535.43 423.76 535.95C423.6 536.25 423.62 536.77 423.79 537.07C423.95 537.37 424.39 537.51 424.7 537.73Z" fill="white"/>
<path d="M854.44 53.3499C850.413 53.3366 846.383 53.3366 842.35 53.3499C838.73 53.3799 835.12 53.5499 831.52 54.1499C827.95 54.7399 824.33 54.9999 820.73 55.4399C810.12 56.7399 799.7 59.0299 789.26 61.2599C768.75 65.6599 748.64 71.4599 728.78 78.1799C711.593 83.9932 694.73 90.6265 678.19 98.0799C675.99 99.0699 673.72 99.9199 671.5 100.87C668.16 102.31 665.2 101.63 662.53 99.3199C661.77 98.6599 661.03 97.9765 660.31 97.2699C656.163 93.1565 652.02 89.0366 647.88 84.9099C647.313 84.3432 646.763 83.7565 646.23 83.1499C644.99 81.7299 644.98 80.3199 646.39 78.8599C648.64 76.5499 650.83 74.1499 653.31 72.1099C658.76 67.6199 664.6 63.6899 670.9 60.4399C679.68 55.9132 688.737 52.0099 698.07 48.7299C711.38 44.0499 724.88 40.0299 738.66 36.9499C749.47 34.5299 760.35 32.4499 771.36 31.1399C776.15 30.5699 780.93 29.8499 785.72 29.2299C787.12 29.0499 788.53 29.0199 789.94 28.8999C792.74 28.6499 795.54 28.3499 798.35 28.1499C801.363 27.9299 804.38 27.7732 807.4 27.6799C812.43 27.5399 817.47 27.6799 822.47 26.8399C823.65 26.6499 824.88 26.6599 826.09 26.6599C833.95 26.6399 841.81 26.4299 849.66 26.6999C856.49 26.9399 863.34 27.3599 870.14 27.9999C883.58 29.2599 896.9 31.4399 910.1 34.2699C912.86 34.8599 915.63 35.3999 918.35 36.1099C920.3 36.6199 922.16 37.3999 923.72 38.7599C924.4 39.3599 924.48 40.9399 923.78 41.4799C923.15 41.9599 922.51 42.5199 921.79 42.7799C911 46.7199 900.13 50.3599 888.76 52.3599C882.97 53.3899 877.12 53.2699 871.33 54.0299C870.55 54.1299 869.73 53.9699 868.92 53.9199C864.1 53.6532 859.277 53.3865 854.45 53.1199C854.45 53.1932 854.447 53.2699 854.44 53.3499Z" fill="white"/>
<path d="M752.28 214.29C752.52 222.11 751.58 229.28 749.81 236.35C749.13 239.08 748.28 241.78 746.83 244.24C746.19 245.34 744.91 245.94 743.77 245.64C743.58 245.59 743.37 245.57 743.19 245.5C731.38 241.08 720.5 235.23 711.41 226.22C704.02 218.9 698.13 210.6 693.27 201.47C685.5 186.88 681.03 171.27 678.69 154.99C678.46 153.4 678.46 151.78 678.33 150.17C678.16 147.96 678.05 145.75 677.78 143.55C677.2 138.93 677.22 134.32 677.78 129.69C678.09 127.09 678.21 124.47 678.36 121.86C678.48 119.83 678.83 117.86 679.55 115.96C680.76 112.77 683.84 110.84 687.19 111.37C688.77 111.62 690.37 112.03 691.83 112.67C694.58 113.9 697.35 115.17 699.92 116.74C709.28 122.44 717.53 129.41 724.45 138C730.68 145.73 736.22 153.86 740.51 162.8C745.51 173.22 749.15 184.1 750.78 195.55C751.69 201.92 752.76 208.31 752.28 214.29Z" fill="white"/>
<path d="M578.55 255.38C555.62 255.12 535.68 250.19 517.23 239.78C511.8 236.72 506.7 233.08 501.55 229.55C497.9 227.05 494.4 224.32 490.87 221.65C490.07 221.05 489.38 220.31 488.67 219.6C487.99 218.91 488.09 217.54 488.84 216.87C488.99 216.74 489.12 216.57 489.28 216.46C494.21 212.98 498.76 208.97 504.07 206.02C513.17 200.95 522.85 197.89 533.24 196.9C539.87 196.27 546.47 195.69 553.08 196.88C566.29 197.46 578.92 200.62 591.28 205.18C606.55 210.81 620.27 219.13 633.12 228.98C637.37 232.24 637.45 233.33 633.54 236.91C631.62 238.67 629.56 240.32 627.37 241.73C617.22 248.23 606.15 252.37 594.21 254.02C588.43 254.81 582.64 255.76 578.55 255.38Z" fill="white"/>
<path d="M666.14 253.78C687.52 254.23 705.42 257.41 722.5 264.71C730.247 268.003 736.77 272.913 742.07 279.44C742.89 280.46 743 281.78 742.36 282.81C741.94 283.49 741.54 284.21 741.01 284.81C739.69 286.32 738.39 287.88 736.91 289.22C733.63 292.21 730.06 294.81 726.1 296.86C718.52 300.78 710.48 303.27 702.14 304.87C698.19 305.62 694.22 306.22 690.17 306.25C687.97 306.26 685.76 306.54 683.56 306.81C680.553 307.177 677.547 307.17 674.54 306.79C672.74 306.55 670.94 306.35 669.13 306.27C644.67 305.13 622.18 297.74 601.41 284.9C598.68 283.21 596.02 281.38 593.93 278.87C593.3 278.12 593.36 276.81 594.12 276.14C594.713 275.6 595.327 275.083 595.96 274.59C602.87 269.25 610.53 265.31 618.71 262.31C628.01 258.9 637.55 256.38 647.38 255.39C654.57 254.66 661.76 253.45 666.14 253.78Z" fill="white"/>
<path d="M393.53 114.81C394.53 114.87 395.96 114.81 397.34 115.06C402.92 116.07 408.57 115.93 414.2 116.03C419.44 116.12 424.67 116.04 429.88 116.83C431.66 117.1 433.5 117.03 435.31 117.06C439.737 117.127 444.167 117.167 448.6 117.18C461.6 117.21 473.66 120.74 484.85 127.22C489.72 130.04 494.42 133.18 499.1 136.33C503.44 139.26 507.54 142.53 511.23 146.27C514.9 150 518.59 153.72 522.19 157.52C524.7 160.17 526.7 163.19 528.26 166.49C529.21 168.5 528.67 169.87 526.52 170.83C525.6 171.237 524.667 171.61 523.72 171.95C516.3 174.63 508.67 176.47 500.89 177.66C496.72 178.3 492.48 178.5 488.27 178.87C487.463 178.95 486.66 178.957 485.86 178.89C475.01 177.98 464.25 176.72 453.8 173.38C444.153 170.307 434.977 166.21 426.27 161.09C420.01 157.4 414.18 153.07 408.8 148.2C404.77 144.56 401.01 140.61 397.26 136.68C393.76 133.01 391.07 128.74 388.69 124.29C387.84 122.7 387.2 120.99 386.62 119.27C385.65 116.36 386.6 114.93 389.49 114.82C390.7 114.77 391.91 114.81 393.53 114.81Z" fill="white"/>
<path d="M578.38 124.87C578.38 131.117 578.377 137.36 578.37 143.6C578.37 147.63 578.48 151.64 579.01 155.66C579.35 158.23 579.3 160.88 579.25 163.49C579.21 166.06 577.77 166.95 575.17 166.16C574.2 165.88 573.24 165.57 572.31 165.18C564.09 161.71 556.53 157.27 550.14 150.86C543.55 144.24 537.97 136.97 533.4 128.82C526.833 117.127 522.173 104.737 519.42 91.65C518.47 87.12 517.59 82.57 517.42 77.92C517.393 77.1133 517.323 76.31 517.21 75.51C516 66.88 516.14 58.26 517.13 49.62C517.52 46.23 517.48 42.78 517.58 39.36C517.67 36.33 517.88 33.33 518.73 30.4C519.01 29.44 520.13 28.79 521.11 29.1C525.76 30.53 530.11 32.61 534.21 35.2C539.663 38.6467 544.823 42.4967 549.69 46.75C557.96 53.97 564.88 62.27 570.16 71.9C575.27 81.24 578.2 91.21 578.29 101.91C578.36 109.56 578.3 117.22 578.3 124.87C578.327 124.87 578.353 124.87 578.38 124.87Z" fill="white"/>
<path d="M664.1 158.36C664.11 162 663.8 165.59 663.26 169.19C662.2 176.35 661.35 183.55 660.46 190.74C660 194.36 659.11 197.85 657.41 201.1C656.82 202.22 655.5 202.77 654.34 202.37C651.48 201.37 648.79 200.01 646.32 198.24C645.01 197.3 643.72 196.33 642.5 195.28C637.8 191.18 633.113 187.063 628.44 182.93C626.94 181.6 625.58 180.07 623.99 178.86C619.3 175.27 615.55 170.8 611.95 166.2C607.29 160.25 604.32 153.42 602.24 146.22C599.84 137.87 598.49 129.33 598.48 120.62C598.46 111.76 598.57 102.9 598.64 94.05C598.65 92.84 598.61 91.61 598.81 90.43C599.69 85.24 599.71 80.01 599.87 74.78C599.91 73.39 600.22 72 600.5 70.63C600.67 69.79 602.02 69.08 602.88 69.16C604.55 69.32 605.97 70.06 607.27 71.04C610.49 73.45 613.8 75.76 616.86 78.37C622.51 83.21 628.29 87.92 633.38 93.39C642.21 102.85 650.13 112.98 655.88 124.64C661.11 135.25 664.02 146.48 664.1 158.36Z" fill="white"/>
<path d="M716.1 604.65C716.17 620.97 712.56 636.59 706.87 651.79C703.05 662.01 697.93 671.59 692.03 680.77C686.91 688.74 681.4 696.43 675.33 703.71C673.79 705.56 672.13 707.33 670.45 709.07C667.8 711.83 665.1 714.54 662.41 717.26C651.14 728.66 638.32 737.95 624.3 745.7C607.59 754.93 589.83 761.27 571.18 765.12C563.68 766.68 556.06 767.48 548.37 766.16C546.99 765.92 545.56 765.94 544.17 765.77C543.59 765.69 542.99 765.48 542.5 765.18C542.22 765.01 542.09 764.55 541.97 764.19C541.93 764.05 542.05 763.77 542.19 763.67C542.67 763.32 543.14 762.91 543.69 762.74C545.99 762.02 548.3 761.32 550.65 760.73C557.9 758.9 564.86 756.26 571.68 753.24C574.8 751.86 577.86 750.3 580.87 748.69C596.9 740.1 611.76 729.75 626.06 718.58C631.14 714.61 636.13 710.53 640.73 706.01C642.17 704.6 643.64 703.21 645.18 701.93C649.06 698.69 652.62 695.15 655.84 691.26C656.48 690.49 657.12 689.7 657.83 688.99C665.28 681.58 671.56 673.2 677.85 664.82C684.99 655.29 691.13 645.13 696.79 634.67C699.09 630.42 701.43 626.21 703.37 621.76C706.45 614.73 708.9 607.5 710.8 600.08C711.25 598.33 711.77 596.58 712.42 594.9C712.69 594.19 713.37 593.63 713.89 593.04C714.18 592.71 715.37 592.92 715.52 593.3C715.73 593.86 716.06 594.42 716.07 594.99C716.13 598.21 716.1 601.43 716.1 604.65Z" fill="white"/>
<path d="M407.62 870.72C407.19 881.02 405.65 891.13 402.62 901.01C399.95 909.74 395.94 917.85 391.52 925.77C387.68 932.65 383.08 939.02 378.14 945.13C376.25 947.47 374.03 949.55 371.9 951.68C371.52 952.06 370.84 952.18 370.27 952.33C369.61 952.5 368.49 951.5 368.65 950.9C368.9 949.93 369.14 948.95 369.54 948.05C371.24 944.18 373.1 940.38 374.72 936.47C378.81 926.55 381.43 916.23 382.93 905.61C383.177 903.817 383.3 902.01 383.3 900.19C383.34 892.14 383.3 884.08 383.3 876.03C383.3 871.57 382.36 867.22 381.63 862.86C379.34 849.3 375.5 836.17 370.19 823.49C364.65 810.23 357.67 797.82 348.46 786.7C339.55 775.94 329.63 766.29 318.09 758.37C314.77 756.09 311.37 753.93 308.02 751.7C307.01 751.04 306.01 750.36 305.08 749.6C304.85 749.42 304.79 748.83 304.9 748.51C305 748.21 305.4 747.92 305.73 747.8C306.09 747.67 306.54 747.64 306.91 747.73C308.47 748.14 310.02 748.56 311.55 749.07C327.12 754.31 341.71 761.48 355 771.17C364.487 778.083 372.877 786.153 380.17 795.38C385.19 801.733 389.537 808.5 393.21 815.68C399.48 827.94 404.21 840.79 406.12 854.49C406.87 859.85 407.81 865.24 407.62 870.72Z" fill="white"/>
<path d="M752.57 272.76C751.21 272.38 749.83 272.09 748.51 271.61C743.97 269.95 739.41 268.32 734.93 266.51C723.73 261.98 712.71 257.01 701.76 251.89C688.8 245.837 675.803 239.867 662.77 233.98C645.32 226.08 628.06 217.81 611.18 208.78C603.37 204.6 595.79 200 588.2 195.41C575.27 187.57 562.78 179.07 550.84 169.78C542.57 163.35 534.48 156.7 527.1 149.23C524.82 146.92 522.8 144.42 521.52 141.41C521.14 140.51 521.02 139.48 520.91 138.5C520.88 138.2 521.2 137.72 521.49 137.57C521.79 137.41 522.25 137.52 522.63 137.58C522.82 137.6 523 137.74 523.16 137.86C531.7 144.97 541.25 150.65 550.49 156.74C558.73 162.17 567.15 167.34 575.6 172.43C581.12 175.75 586.76 178.91 592.5 181.83C609.39 190.39 626.29 198.95 643.34 207.2C655.12 212.89 667.1 218.19 679.09 223.45C693.3 229.68 707.58 235.74 721.89 241.72C729.51 244.9 737.23 247.85 744.98 250.69C749.33 252.28 753.79 253.59 758.27 254.77C763.73 256.2 763.61 258.23 761.39 262C759.557 265.127 757.667 268.217 755.72 271.27C755.04 272.33 753.96 272.94 752.57 272.76Z" fill="white"/>
<path d="M760.52 175.77C760.527 173.157 760.527 170.543 760.52 167.93C760.47 160.45 761.76 153.12 763.05 145.8C763.33 144.2 763.81 142.68 764.66 141.28C765.67 139.64 767.66 138.99 769.38 139.81C770.11 140.16 770.84 140.51 771.49 140.97C775.11 143.53 778.48 146.38 781.43 149.72C784.76 153.48 788.21 157.13 791.6 160.84C794.18 163.66 796.72 166.51 799.3 169.33C801.06 171.25 802.89 173.13 804.65 175.05C808.87 179.643 813.063 184.253 817.23 188.88C817.89 189.62 818.36 190.53 818.86 191.39C819.23 192.01 819.1 193.22 818.63 193.67C817.91 194.37 817.19 195.08 816.41 195.69C810.84 200.02 805.65 204.75 800.7 209.77C794.62 215.95 789.17 222.65 783.98 229.57C782.41 231.66 780.88 233.78 779.3 235.86C778.94 236.32 778.46 236.81 777.94 237C777.44 237.19 776.7 237.21 776.25 236.96C775.58 236.58 774.98 235.97 774.51 235.34C771.46 231.29 769.19 226.83 767.54 222.03C764.92 214.4 763.3 206.53 761.83 198.62C760.42 191.05 760.5 183.41 760.52 175.77Z" fill="white"/>
<path d="M197.67 869.38C196.06 869.38 194.42 869.57 192.84 869.35C187.23 868.56 181.59 868.64 175.95 868.54C172.12 868.48 168.32 868.14 164.51 867.75C159.3 867.22 154.09 866.71 148.9 866.06C145.9 865.68 142.92 865.2 139.94 864.7C138.55 864.47 137.25 863.93 136.1 863.05C135.33 862.45 135.31 860.84 136.14 860.43C136.86 860.09 137.58 859.73 138.34 859.49C140.68 858.77 143.1 858.76 145.53 858.76C154.79 858.76 164.06 858.8 173.33 858.76C184.01 858.72 194.69 858.63 205.37 858.49C208.18 858.45 210.98 858.08 213.79 857.85C214.59 857.78 215.39 857.55 216.19 857.56C222.05 857.62 227.81 856.45 233.63 856.03C237.65 855.73 241.65 855.19 245.63 854.58C263.35 851.9 281.03 848.98 298.65 845.72C307.56 844.07 316.51 842.64 325.45 841.15C326.43 840.98 327.46 840.92 328.45 840.99C329.01 841.03 329.57 841.38 330.07 841.69C330.67 842.05 330.88 843.39 330.41 843.86C329.7 844.55 329.02 845.33 328.18 845.83C324.533 848.003 320.69 849.75 316.65 851.07C307.45 854.1 298.11 856.57 288.68 858.75C278.87 861.02 268.97 862.87 259.02 864.41C254.44 865.11 249.84 865.64 245.24 866.19C239.24 866.9 233.25 867.6 227.24 868.18C224.44 868.45 221.61 868.46 218.79 868.53C213.55 868.67 208.31 868.56 203.1 869.3C201.32 869.55 199.48 869.34 197.67 869.34C197.67 869.353 197.67 869.367 197.67 869.38Z" fill="white"/>
<path d="M392.07 401.45C392.47 401.483 392.873 401.52 393.28 401.56C394.81 401.72 395.92 403.05 395.67 404.45C395.52 405.24 395.37 406.04 395.13 406.8C392.603 414.56 391.567 422.503 392.02 430.63C392.49 439.1 393.82 447.43 397.04 455.37C398.63 459.29 400.36 463.17 401.09 467.37C401.29 468.55 401.44 469.78 401.32 470.96C400.73 476.39 396.5 479.08 391.36 477.33C388.66 476.41 386.27 474.95 384.11 473.08C379.27 468.9 375.82 463.78 373.69 457.77C371.86 452.62 370.87 447.27 370.24 441.86C370.03 440.07 370.03 438.23 370.19 436.43C371.04 426.82 373.95 417.92 379.67 410.04C381.21 407.91 382.91 405.93 384.91 404.22C386.97 402.47 389.32 401.41 392.07 401.45Z" fill="white"/>
<path d="M171.11 823.67C166.88 823.67 162.65 823.69 158.42 823.66C156.77 823.65 155.27 823.14 153.98 822.05C152.88 821.12 152.69 819.36 153.71 818.29C154.26 817.72 154.93 817.26 155.59 816.82C155.91 816.6 156.33 816.5 156.72 816.43C159.09 816 161.46 815.39 163.86 815.22C170.9 814.72 177.79 813.16 184.75 812.13C193.9 810.78 203.03 809.22 212.16 807.74C226.06 805.47 239.95 803.12 253.86 800.94C263.81 799.37 273.63 797.22 283.38 794.72C285.52 794.17 287.7 793.77 289.89 793.41C291.07 793.21 292.28 793.24 293.44 793.72C294.05 793.98 294.59 795.28 294.16 795.77C293.64 796.37 293.15 797.08 292.48 797.44C290.71 798.38 288.89 799.26 287.03 799.99C276.72 804.06 266.07 807.11 255.47 810.31C242.55 814.2 229.4 817.19 216.1 819.51C207.98 820.93 199.86 822.41 191.58 822.67C190.98 822.69 190.37 822.69 189.78 822.8C183.59 823.94 177.34 823.63 171.11 823.67Z" fill="white"/>
<path d="M227.39 918.01C223.96 918.01 220.54 918.09 217.12 917.99C214.51 917.91 211.91 917.62 209.3 917.4C208.3 917.32 207.3 917.11 206.3 917.07C193.39 916.53 180.73 914.14 168.06 911.88C166.87 911.67 165.7 911.33 164.56 910.96C162.5 910.29 161.45 908.66 161.85 906.86C162.19 905.29 163.61 904.17 165.45 904.27C168.86 904.47 172.27 904.78 175.67 905.07C177.88 905.25 180.07 905.59 182.28 905.67C187.11 905.84 191.93 905.88 196.73 906.62C198.51 906.89 200.35 906.84 202.16 906.84C214.03 906.85 225.91 906.88 237.79 906.81C240.8 906.79 243.81 906.39 246.82 906.22C250.233 906.027 253.65 905.877 257.07 905.77C261.69 905.63 266.33 905.72 270.91 904.87C272.48 904.58 274.12 904.68 275.73 904.55C278.53 904.31 281.333 904.057 284.14 903.79C285.54 903.657 286.94 903.513 288.34 903.36C291.14 903.08 293.94 902.797 296.74 902.51C299.94 902.18 303.13 901.74 306.33 902.43C306.84 902.53 307.29 903.46 307 903.88C306.67 904.37 306.4 904.98 305.94 905.3C304.62 906.19 303.27 907.1 301.81 907.75C300.17 908.49 298.43 909.05 296.68 909.51C288.89 911.58 281 913.18 273.05 914.45C267.89 915.28 262.7 915.94 257.51 916.62C256.12 916.81 254.7 916.83 253.3 916.91C252.09 916.97 250.86 916.9 249.68 917.09C242.29 918.31 234.83 918.03 227.39 918.01Z" fill="white"/>
<path d="M228.52 659.79C228.52 660.75 228.66 661.22 228.5 661.52C227.64 663.1 226.8 664.7 225.79 666.19C222.72 670.69 218.85 674.5 214.79 678.08C210.73 681.66 206.89 685.47 202.98 689.21C201.68 690.45 200.31 691.65 198.81 692.62C197.84 693.25 196.61 693.58 195.45 693.79C193.74 694.11 191.86 692.33 191.82 690.57C191.76 688.46 192.44 686.58 193.78 685.03C195.09 683.52 196.51 682.08 198.06 680.82C206.007 674.393 213.983 668.007 221.99 661.66C223.08 660.8 224.32 660.1 225.55 659.46C226.05 659.2 226.72 659.27 227.31 659.23C227.8 659.19 228.52 659.88 228.52 659.79Z" fill="white"/>
</svg>
